<?xml version="1.0" encoding="UTF-8"?>
<svg id="Ebene_2" data-name="Ebene 2" xmlns="http://www.w3.org/2000/svg" viewBox="0 0 862.17 273.25">
  <defs>
    <style>
      .cls-1 {
        fill: #415578;
      }
    </style>
  </defs>
  <g id="design">
    <g>
      <path class="cls-1" d="M372.11,91.23v-33.66h0c-23.14,0-43.84,10.64-57.48,27.27-13.64-16.64-34.34-27.27-57.48-27.27-40.97,0-74.3,33.33-74.3,74.3h0c0,22.41-18.23,40.65-40.65,40.65v.03h-60.9v-81.32s60.9,0,60.9,0v-33.67s-60.9,0-60.9,0V9.29s-35.96,0-35.96,0v43.68c0,2.53-2.06,4.59-4.6,4.59H0v33.67s44.57,0,44.57,0v76.37c0,23.8,14.39,38.58,37.55,38.58h60.09c23.14,0,43.84-10.64,57.48-27.27,13.64,16.64,34.34,27.27,57.48,27.27,40.97,0,74.3-33.33,74.3-74.3,0-22.41,18.23-40.65,40.65-40.65h0ZM257.16,172.52c-22.41,0-40.65-18.23-40.65-40.65s18.23-40.65,40.65-40.65,40.65,18.23,40.65,40.65-18.23,40.65-40.65,40.65Z"/>
      <polygon class="cls-1" points="754.1 153.58 767.93 141 816.74 206.07 862.17 206.07 795.36 118.3 859.7 57.57 811.44 57.57 764.88 100.35 754.1 110.53 754.1 0 717.67 0 717.67 206.07 754.1 206.07 754.1 153.58"/>
      <path class="cls-1" d="M668.9,173.54l2.61-6.01-27.79-19.02-3.95,8.5c-5.79,12.47-15.21,18.54-28.79,18.54-9.13,0-30.36-3.16-30.36-32.42v-22.62c0-20.3,11.16-32.42,29.85-32.42,12.82,0,21.29,5.5,25.17,16.33l3.09,8.63,30.92-16.42-2.76-6.66c-9.48-22.88-29.52-35.49-56.43-35.49-41.2,0-67.82,30.35-67.82,77.34,0,38.38,17.84,65.65,46.92,74.36h-217.45v67.07h490.05v-67.07h-230.18c16.84-5.04,29.82-16.34,36.91-32.64ZM860.17,208.18v63.07h-486.05v-63.07h224.27c3.95.64,8.07.98,12.35.98s8.49-.33,12.49-.98h236.95Z"/>
      <path class="cls-1" d="M498.77,172.71h-51.41v-49.38c0-14.18,8.31-29.33,31.65-29.33h32.87v-36.44h-26.44c-15.87,0-28.69,4.77-38.07,14.01v-14.01h-75.25v33.67h38.79v-.32h.02v81.8h-38.81v33.35h126.65v-33.35Z"/>
      <polygon class="cls-1" points="498.09 248.21 498.09 250.31 497.25 250.31 497.25 248.21 496.38 235.05 489.1 235.05 488.22 248.21 488.22 250.31 487.38 250.31 487.38 248.21 486.61 235.05 482.55 235.05 483.71 252.41 491.34 252.41 492.32 239.25 492.32 237.15 493.16 237.15 493.16 239.25 494.14 252.41 501.77 252.41 502.92 235.05 498.86 235.05 498.09 248.21"/>
      <polygon class="cls-1" points="519.51 248.21 519.51 250.31 518.67 250.31 518.67 248.21 517.79 235.05 510.51 235.05 509.64 248.21 509.64 250.31 508.8 250.31 508.8 248.21 508.03 235.05 503.97 235.05 505.12 252.41 512.75 252.41 513.73 239.25 513.73 237.15 514.57 237.15 514.57 239.25 515.55 252.41 523.18 252.41 524.34 235.05 520.28 235.05 519.51 248.21"/>
      <polygon class="cls-1" points="540.93 248.21 540.93 250.31 540.09 250.31 540.09 248.21 539.21 235.05 531.93 235.05 531.06 248.21 531.06 250.31 530.22 250.31 530.22 248.21 529.45 235.05 525.39 235.05 526.54 252.41 534.17 252.41 535.15 239.25 535.15 237.15 535.99 237.15 535.99 239.25 536.97 252.41 544.6 252.41 545.76 235.05 541.7 235.05 540.93 248.21"/>
      <path class="cls-1" d="M556.99,246.25c-.91,0-1.69.32-2.34.96-.65.64-.98,1.43-.98,2.36s.33,1.72.98,2.36c.65.64,1.43.96,2.34.96s1.69-.32,2.35-.96c.65-.64.98-1.43.98-2.36s-.33-1.72-.98-2.36c-.65-.64-1.44-.96-2.35-.96Z"/>
      <path class="cls-1" d="M579.49,227.91h-4.41v7.14h-5.14v4.2h5.14v10.43c0,.79.25,1.45.75,1.96.5.51,1.15.77,1.94.77h7.35v-4.2h-4.69c-.63,0-.95-.35-.95-1.05v-7.91h6.26v-4.2h-6.26v-7.14Z"/>
      <path class="cls-1" d="M604.27,235.61c-1.38-.7-2.86-1.05-4.45-1.05s-3.07.35-4.44,1.05c-1.38.7-2.49,1.72-3.33,3.06s-1.26,2.96-1.26,4.85v.42c0,1.91.42,3.53,1.26,4.86s1.95,2.34,3.33,3.04c1.38.7,2.86,1.05,4.44,1.05s3.07-.35,4.45-1.05c1.38-.7,2.48-1.71,3.32-3.04s1.26-2.95,1.26-4.86v-.42c0-1.89-.42-3.5-1.26-4.85s-1.95-2.36-3.32-3.06ZM604.44,244.08c0,1.42-.45,2.55-1.35,3.38-.9.83-1.99,1.24-3.27,1.24s-2.37-.41-3.27-1.24c-.9-.83-1.35-1.95-1.35-3.38v-.7c0-1.45.45-2.58,1.35-3.4.9-.82,1.99-1.22,3.27-1.22s2.37.41,3.27,1.22c.9.82,1.35,1.95,1.35,3.4v.7Z"/>
      <path class="cls-1" d="M623.97,248.21h-3.99v-5.6c0-1.26.28-2.23.84-2.9s1.33-1.01,2.31-1.01,1.71.29,2.21.86c.49.57.74,1.33.74,2.29v.49l4.55-.42v-.77c0-2.22-.53-3.87-1.57-4.95-1.05-1.08-2.44-1.63-4.17-1.63-1.07,0-2.01.26-2.8.79-.79.53-1.35,1.27-1.68,2.22h-.63v-2.52h-7.35v4.2h3.15v8.96h-3.57v4.2h11.97v-4.2Z"/>
      <path class="cls-1" d="M638.25,251.87c1.38.69,2.92,1.03,4.62,1.03,2.47,0,4.46-.63,5.95-1.89,1.49-1.26,2.43-2.92,2.8-4.97l-4.34-1.08c-.21,1.14-.67,2.05-1.38,2.73-.71.68-1.74,1.01-3.1,1.01-1.26,0-2.34-.4-3.25-1.19-.91-.79-1.37-1.97-1.37-3.53v-.21c0-1.56.46-2.79,1.37-3.67s1.99-1.33,3.25-1.33c1.35,0,2.4.37,3.15,1.12.75.75,1.19,1.63,1.33,2.66l4.34-1.12c-.37-2.05-1.32-3.71-2.83-4.97s-3.49-1.89-5.91-1.89c-1.68,0-3.21.37-4.58,1.1-1.38.73-2.47,1.78-3.29,3.15-.82,1.37-1.22,2.98-1.22,4.85v.42c0,1.87.4,3.46,1.21,4.78.81,1.32,1.9,2.32,3.27,3.01Z"/>
      <polygon class="cls-1" points="661.9 245.62 662.74 245.62 667.71 252.41 672.75 252.41 672.75 252.2 666.59 243.83 666.59 243.21 672.19 235.26 672.19 235.05 667.36 235.05 662.74 241.42 661.9 241.42 661.9 227.91 657.49 227.91 657.49 252.41 661.9 252.41 661.9 245.62"/>
      <path class="cls-1" d="M685.49,252.9c.91,0,1.69-.32,2.34-.96.65-.64.98-1.43.98-2.36s-.33-1.72-.98-2.36c-.65-.64-1.43-.96-2.34-.96s-1.69.32-2.35.96c-.65.64-.98,1.43-.98,2.36s.33,1.72.98,2.36c.65.64,1.44.96,2.35.96Z"/>
      <path class="cls-1" d="M707.29,233.23c.91,0,1.69-.32,2.34-.96.65-.64.98-1.43.98-2.36s-.33-1.72-.98-2.36c-.65-.64-1.44-.96-2.34-.96s-1.69.32-2.34.96c-.65.64-.98,1.43-.98,2.36s.33,1.72.98,2.36c.65.64,1.43.96,2.34.96Z"/>
      <polygon class="cls-1" points="714.57 248.21 709.53 248.21 709.53 235.05 699.66 235.05 699.66 239.25 705.12 239.25 705.12 248.21 699.24 248.21 699.24 252.41 714.57 252.41 714.57 248.21"/>
      <path class="cls-1" d="M723.88,251.85c1.38.7,2.86,1.05,4.45,1.05s3.07-.35,4.44-1.05c1.38-.7,2.49-1.71,3.33-3.04s1.26-2.95,1.26-4.86v-.42c0-1.89-.42-3.5-1.26-4.85s-1.95-2.36-3.33-3.06c-1.38-.7-2.86-1.05-4.44-1.05s-3.07.35-4.45,1.05-2.48,1.72-3.32,3.06-1.26,2.96-1.26,4.85v.42c0,1.91.42,3.53,1.26,4.86s1.95,2.34,3.32,3.04ZM723.71,243.38c0-1.45.45-2.58,1.35-3.4.9-.82,1.99-1.22,3.27-1.22s2.37.41,3.27,1.22c.9.82,1.35,1.95,1.35,3.4v.7c0,1.42-.45,2.55-1.35,3.38-.9.83-1.99,1.24-3.27,1.24s-2.38-.41-3.27-1.24c-.9-.83-1.35-1.95-1.35-3.38v-.7Z"/>
    </g>
  </g>
</svg>