<?xml version="1.0" encoding="UTF-8"?>
<svg id="Ebene_2" data-name="Ebene 2" xmlns="http://www.w3.org/2000/svg" viewBox="0 0 731.18 177.38">
  <defs>
    <style>
      .cls-1 {
        fill: #415578;
      }
    </style>
  </defs>
  <g id="design">
    <g>
      <path class="cls-1" d="M542.57,133.16c-4.91,10.58-12.9,15.72-24.41,15.72-7.74,0-25.75-2.68-25.75-27.49v-19.18c0-17.22,9.46-27.49,25.31-27.49,10.87,0,18.05,4.66,21.35,13.85l2.62,7.32,26.22-13.93-2.34-5.65c-8.04-19.41-25.03-30.09-47.85-30.09-34.94,0-57.52,25.74-57.52,65.59s22.66,65.59,57.74,65.59c23.01,0,40.99-11.01,49.33-30.2l2.22-5.1-23.57-16.13-3.35,7.21Z"/>
      <polygon class="cls-1" points="674.52 100.33 729.09 48.83 688.16 48.83 648.67 85.11 639.54 93.73 639.54 0 608.63 0 608.63 174.77 639.54 174.77 639.54 130.25 651.26 119.58 692.65 174.77 731.18 174.77 674.52 100.33"/>
      <path class="cls-1" d="M266.84,71.95c-11.57-14.11-29.12-23.13-48.74-23.13-34.75,0-63.01,28.27-63.01,63.02h0c0,19.01-15.46,34.47-34.47,34.47v.02h-51.65v-68.97s51.65,0,51.65,0v-28.56s-51.65,0-51.65,0V7.88s-30.5,0-30.5,0v37.04c0,2.15-1.75,3.89-3.9,3.89H0v28.56s37.8,0,37.8,0v64.77c0,20.18,12.2,32.72,31.84,32.72h50.96c19.62,0,37.18-9.02,48.74-23.13,11.57,14.11,29.12,23.13,48.74,23.13,34.75,0,63.01-28.27,63.01-63.01,0-19.01,15.46-34.47,34.47-34.47h0v-28.54h0c-19.62,0-37.18,9.02-48.74,23.13ZM218.09,146.31c-19.01,0-34.47-15.46-34.47-34.47s15.46-34.47,34.47-34.47,34.47,15.46,34.47,34.47-15.46,34.47-34.47,34.47Z"/>
      <path class="cls-1" d="M379.39,60.69v-11.88h-63.81v28.56h32.9v-.27h.02v69.37h-32.91v28.28h107.41v-28.28h-43.6v-41.88c0-12.02,7.05-24.88,26.84-24.88h27.88v-30.9h-22.43c-13.46,0-24.33,4.04-32.29,11.88Z"/>
    </g>
  </g>
</svg>