<?xml version="1.0" encoding="UTF-8"?>
<svg id="Ebene_2" data-name="Ebene 2" xmlns="http://www.w3.org/2000/svg" viewBox="0 0 862.17 273.12">
  <defs>
    <style>
      .cls-1 {
        fill: #415578;
      }
    </style>
  </defs>
  <g id="design">
    <g>
      <path class="cls-1" d="M862.15,206.06l-66.8-87.75,64.34-60.73h-48.25l-46.57,42.78-10.77,10.17V0h-36.44v206.06h-85.28c16.65-5.1,29.48-16.34,36.51-32.51l2.61-6.01-27.79-19.02-3.95,8.5c-5.79,12.47-15.21,18.54-28.79,18.54-9.13,0-30.36-3.16-30.36-32.42v-22.62c0-20.3,11.16-32.42,29.85-32.42,12.82,0,21.29,5.5,25.17,16.33l3.1,8.63,30.92-16.42-2.76-6.66c-9.48-22.88-29.52-35.49-56.43-35.49-41.2,0-67.82,30.35-67.82,77.34,0,38.19,17.66,65.39,46.48,74.23h-90.36v-33.35h-51.41v-49.38c0-14.18,8.31-29.33,31.65-29.33h32.87v-36.44h-26.44c-15.87,0-28.69,4.77-38.07,14.01v-14.01h-75.25v33.67h38.79v-.32h.02v81.8h-38.81v33.35h0v67.07h490.05v-67.07h-.01ZM754.1,153.58l13.83-12.58,48.79,65.06h-62.62v-52.48ZM860.17,271.12h-486.05v-63.07h223.55c4.17.71,8.52,1.1,13.07,1.1s8.98-.38,13.19-1.1h236.25v63.07Z"/>
      <path class="cls-1" d="M372.11,57.57h0c-23.14,0-43.84,10.64-57.48,27.27-13.64-16.64-34.34-27.27-57.48-27.27-40.97,0-74.3,33.33-74.3,74.3h0c0,22.41-18.23,40.65-40.65,40.65v.03h-60.9v-81.32s60.9,0,60.9,0v-33.67s-60.9,0-60.9,0V9.29s-35.96,0-35.96,0v43.68c0,2.53-2.06,4.59-4.6,4.59H0v33.67s44.57,0,44.57,0v76.37c0,23.8,14.39,38.58,37.55,38.58h60.09c23.14,0,43.84-10.64,57.48-27.27,13.64,16.64,34.34,27.27,57.48,27.27,40.97,0,74.3-33.33,74.3-74.3,0-22.41,18.23-40.65,40.65-40.65h0v-33.66ZM257.16,172.52c-22.41,0-40.65-18.23-40.65-40.65s18.23-40.65,40.65-40.65,40.65,18.23,40.65,40.65-18.23,40.65-40.65,40.65Z"/>
      <path class="cls-1" d="M419.61,239.97c.91-.89,2-1.33,3.25-1.33,1.35,0,2.4.37,3.15,1.12.75.75,1.19,1.63,1.33,2.66l4.34-1.12c-.37-2.05-1.32-3.71-2.83-4.97s-3.49-1.89-5.92-1.89c-1.68,0-3.21.37-4.58,1.1-1.38.73-2.47,1.78-3.29,3.15-.82,1.37-1.22,2.98-1.22,4.85v.42c0,1.87.4,3.46,1.21,4.78s1.89,2.32,3.27,3.01c1.38.69,2.92,1.03,4.62,1.03,2.47,0,4.46-.63,5.95-1.89,1.49-1.26,2.43-2.92,2.8-4.97l-4.34-1.08c-.21,1.14-.67,2.05-1.38,2.73-.71.68-1.74,1.01-3.1,1.01-1.26,0-2.34-.4-3.25-1.19-.91-.79-1.37-1.97-1.37-3.53v-.21c0-1.56.46-2.79,1.37-3.67Z"/>
      <path class="cls-1" d="M448.59,235.49c-1.38-.7-2.86-1.05-4.45-1.05s-3.07.35-4.44,1.05c-1.38.7-2.49,1.72-3.33,3.06s-1.26,2.96-1.26,4.85v.42c0,1.91.42,3.53,1.26,4.86s1.95,2.34,3.33,3.04c1.38.7,2.86,1.05,4.44,1.05s3.07-.35,4.45-1.05c1.38-.7,2.48-1.71,3.32-3.04s1.26-2.95,1.26-4.86v-.42c0-1.89-.42-3.5-1.26-4.85s-1.95-2.36-3.32-3.06ZM448.77,243.96c0,1.42-.45,2.55-1.35,3.38-.9.83-1.99,1.24-3.27,1.24s-2.37-.41-3.27-1.24c-.9-.83-1.35-1.95-1.35-3.38v-.7c0-1.45.45-2.58,1.35-3.4.9-.82,1.99-1.22,3.27-1.22s2.37.41,3.27,1.22c.9.82,1.35,1.95,1.35,3.4v.7Z"/>
      <path class="cls-1" d="M470.04,237.45h-.63c-.44-.96-1.08-1.7-1.91-2.22-.83-.52-1.94-.79-3.34-.79s-2.69.35-3.87,1.05c-1.18.7-2.12,1.71-2.83,3.03-.71,1.32-1.07,2.91-1.07,4.78v.63c0,1.89.34,3.49,1.01,4.81.68,1.32,1.59,2.32,2.73,3.01,1.14.69,2.43,1.03,3.85,1.03,1.66,0,2.89-.31,3.69-.93s1.38-1.31,1.73-2.08h.63v2.52h4.41v-24.5h-4.41v9.66ZM470.04,243.82c0,1.42-.43,2.57-1.28,3.45-.85.88-1.97,1.31-3.34,1.31s-2.46-.43-3.32-1.29-1.29-2.02-1.29-3.46v-.42c0-1.45.43-2.6,1.29-3.46.86-.86,1.97-1.29,3.32-1.29s2.49.44,3.34,1.31c.85.88,1.28,2.02,1.28,3.45v.42Z"/>
      <path class="cls-1" d="M493.58,237.2c-.69-.82-1.57-1.48-2.64-2-1.07-.51-2.36-.77-3.85-.77-1.61,0-3.07.37-4.39,1.12-1.32.75-2.38,1.78-3.17,3.11s-1.19,2.88-1.19,4.65v.21c0,1.94.37,3.59,1.12,4.97.75,1.38,1.79,2.43,3.12,3.17,1.33.73,2.86,1.1,4.58,1.1,1.54,0,2.81-.22,3.81-.65s1.8-.96,2.4-1.59,1.02-1.24,1.28-1.82l-3.78-2.1c-.23.51-.65.97-1.24,1.36-.59.4-1.44.59-2.54.59s-2.09-.33-2.9-1-1.25-1.51-1.29-2.54h12.74v-2.34c0-.91-.17-1.85-.51-2.82-.34-.97-.85-1.86-1.54-2.68ZM482.96,241.26c.21-.75.67-1.41,1.38-1.98.71-.57,1.62-.86,2.71-.86s2.05.27,2.78.8c.73.54,1.17,1.21,1.31,2.03h-8.19Z"/>
      <path class="cls-1" d="M535.41,234.44c-.86,0-1.6.2-2.2.61s-1,.93-1.19,1.56h-.63c-.16-.63-.52-1.15-1.07-1.56-.55-.41-1.21-.61-1.98-.61s-1.45.2-1.96.61-.84.93-.98,1.56h-.63v-1.68h-4.41v17.36h4.41v-11.97c0-.56.14-.98.42-1.26.28-.28.63-.42,1.05-.42.37,0,.69.12.96.37.27.24.4.61.4,1.1v12.18h4.41v-11.97c0-.56.14-.98.42-1.26.28-.28.64-.42,1.09-.42.4,0,.72.12.96.37.25.24.37.61.37,1.1v12.18h4.41v-13.44c0-1.38-.35-2.46-1.05-3.24-.7-.78-1.63-1.17-2.8-1.17Z"/>
      <polygon class="cls-1" points="553.86 234.93 543.99 234.93 543.99 239.13 549.45 239.13 549.45 248.09 543.57 248.09 543.57 252.29 558.9 252.29 558.9 248.09 553.86 248.09 553.86 234.93"/>
      <path class="cls-1" d="M551.62,233.11c.91,0,1.69-.32,2.34-.96.65-.64.98-1.43.98-2.36s-.33-1.72-.98-2.36c-.65-.64-1.44-.96-2.34-.96s-1.69.32-2.34.96c-.65.64-.98,1.43-.98,2.36s.33,1.72.98,2.36c.65.64,1.43.96,2.34.96Z"/>
      <path class="cls-1" d="M573.73,227.79h-4.41v7.14h-5.14v4.2h5.14v10.43c0,.79.25,1.45.75,1.96.5.51,1.15.77,1.94.77h7.35v-4.2h-4.69c-.63,0-.95-.35-.95-1.05v-7.91h6.26v-4.2h-6.26v-7.14Z"/>
      <path class="cls-1" d="M619.96,237.45h-.63c-.44-.96-1.08-1.7-1.91-2.22-.83-.52-1.94-.79-3.34-.79s-2.69.35-3.87,1.05c-1.18.7-2.12,1.71-2.83,3.03-.71,1.32-1.07,2.91-1.07,4.78v.63c0,1.89.34,3.49,1.01,4.81.68,1.32,1.59,2.32,2.73,3.01,1.14.69,2.43,1.03,3.85,1.03,1.66,0,2.89-.31,3.69-.93s1.38-1.31,1.73-2.08h.63v2.52h4.41v-24.5h-4.41v9.66ZM619.96,243.82c0,1.42-.43,2.57-1.28,3.45-.85.88-1.97,1.31-3.34,1.31s-2.46-.43-3.32-1.29-1.29-2.02-1.29-3.46v-.42c0-1.45.43-2.6,1.29-3.46.86-.86,1.97-1.29,3.32-1.29s2.49.44,3.34,1.31c.85.88,1.28,2.02,1.28,3.45v.42Z"/>
      <path class="cls-1" d="M639.63,248.09h-3.99v-5.6c0-1.26.28-2.23.84-2.9s1.33-1.01,2.31-1.01,1.71.29,2.21.86c.49.57.73,1.33.73,2.29v.49l4.55-.42v-.77c0-2.22-.52-3.87-1.58-4.95-1.05-1.08-2.44-1.63-4.16-1.63-1.07,0-2.01.26-2.8.79-.79.53-1.35,1.27-1.68,2.22h-.63v-2.52h-7.35v4.2h3.15v8.96h-3.57v4.2h11.97v-4.2Z"/>
      <path class="cls-1" d="M653.91,251.67c1.33.73,2.86,1.1,4.58,1.1,1.54,0,2.81-.22,3.81-.65,1-.43,1.8-.96,2.4-1.59s1.02-1.24,1.28-1.82l-3.78-2.1c-.23.51-.65.97-1.24,1.36-.6.4-1.44.59-2.54.59s-2.09-.33-2.9-1c-.82-.67-1.25-1.51-1.29-2.54h12.74v-2.34c0-.91-.17-1.85-.51-2.82-.34-.97-.85-1.86-1.54-2.68-.69-.82-1.57-1.48-2.64-2-1.07-.51-2.36-.77-3.85-.77-1.61,0-3.07.37-4.39,1.12s-2.37,1.78-3.17,3.11c-.79,1.33-1.19,2.88-1.19,4.65v.21c0,1.94.37,3.59,1.12,4.97.75,1.38,1.78,2.43,3.11,3.17ZM655.68,239.29c.71-.57,1.62-.86,2.71-.86s2.05.27,2.78.8c.74.54,1.17,1.21,1.31,2.03h-8.19c.21-.75.67-1.41,1.38-1.98Z"/>
      <path class="cls-1" d="M676.24,243.26c0-1.47.33-2.64.98-3.52.65-.88,1.62-1.31,2.9-1.31,1.12,0,1.98.36,2.57,1.07.59.71.89,1.69.89,2.92v9.87h4.41v-10.92c0-2.38-.57-4.13-1.7-5.25-1.13-1.12-2.56-1.68-4.29-1.68-1.26,0-2.32.29-3.18.86-.86.57-1.52,1.38-1.96,2.43h-.63v-9.94h-4.41v24.5h4.41v-9.03Z"/>
      <path class="cls-1" d="M696.11,240.32c0-.56.14-.98.42-1.26.28-.28.63-.42,1.05-.42.37,0,.69.12.96.37.27.24.4.61.4,1.1v12.18h4.41v-11.97c0-.56.14-.98.42-1.26.28-.28.64-.42,1.08-.42.4,0,.72.12.96.37.25.24.37.61.37,1.1v12.18h4.41v-13.44c0-1.38-.35-2.46-1.05-3.24-.7-.78-1.63-1.17-2.8-1.17-.86,0-1.6.2-2.21.61-.61.41-1,.93-1.19,1.56h-.63c-.16-.63-.52-1.15-1.07-1.56-.55-.41-1.21-.61-1.98-.61s-1.45.2-1.96.61c-.51.41-.84.93-.98,1.56h-.63v-1.68h-4.41v17.36h4.41v-11.97Z"/>
      <path class="cls-1" d="M718.12,251.73c1.38.7,2.86,1.05,4.45,1.05s3.07-.35,4.44-1.05c1.38-.7,2.49-1.71,3.33-3.04s1.26-2.95,1.26-4.86v-.42c0-1.89-.42-3.5-1.26-4.85s-1.95-2.36-3.33-3.06c-1.38-.7-2.86-1.05-4.44-1.05s-3.07.35-4.45,1.05-2.48,1.72-3.32,3.06-1.26,2.96-1.26,4.85v.42c0,1.91.42,3.53,1.26,4.86s1.95,2.34,3.32,3.04ZM717.95,243.26c0-1.45.45-2.58,1.35-3.4.9-.82,1.99-1.22,3.27-1.22s2.37.41,3.27,1.22c.9.82,1.35,1.95,1.35,3.4v.7c0,1.42-.45,2.55-1.35,3.38-.9.83-1.99,1.24-3.27,1.24s-2.38-.41-3.27-1.24c-.9-.83-1.35-1.95-1.35-3.38v-.7Z"/>
      <path class="cls-1" d="M738.95,240.32c0-.56.14-.98.42-1.26.28-.28.63-.42,1.05-.42.37,0,.69.12.96.37.27.24.4.61.4,1.1v12.18h4.41v-11.97c0-.56.14-.98.42-1.26.28-.28.64-.42,1.09-.42.4,0,.72.12.96.37.25.24.37.61.37,1.1v12.18h4.41v-13.44c0-1.38-.35-2.46-1.05-3.24-.7-.78-1.63-1.17-2.8-1.17-.86,0-1.6.2-2.2.61s-1,.93-1.19,1.56h-.63c-.16-.63-.52-1.15-1.07-1.56-.55-.41-1.21-.61-1.98-.61s-1.45.2-1.96.61-.84.93-.98,1.56h-.63v-1.68h-4.41v17.36h4.41v-11.97Z"/>
      <path class="cls-1" d="M760.99,251.67c1.33.73,2.86,1.1,4.58,1.1,1.54,0,2.81-.22,3.81-.65,1-.43,1.8-.96,2.4-1.59s1.02-1.24,1.28-1.82l-3.78-2.1c-.23.51-.65.97-1.24,1.36-.6.4-1.44.59-2.54.59s-2.09-.33-2.9-1c-.82-.67-1.25-1.51-1.29-2.54h12.74v-2.34c0-.91-.17-1.85-.51-2.82-.34-.97-.85-1.86-1.54-2.68-.69-.82-1.57-1.48-2.64-2-1.07-.51-2.36-.77-3.85-.77-1.61,0-3.07.37-4.39,1.12s-2.37,1.78-3.17,3.11c-.79,1.33-1.19,2.88-1.19,4.65v.21c0,1.94.37,3.59,1.12,4.97.75,1.38,1.78,2.43,3.11,3.17ZM762.76,239.29c.71-.57,1.62-.86,2.71-.86s2.05.27,2.78.8c.74.54,1.17,1.21,1.31,2.03h-8.19c.21-.75.67-1.41,1.38-1.98Z"/>
      <path class="cls-1" d="M783.25,243.26c0-1.47.33-2.64.98-3.52.65-.88,1.62-1.31,2.9-1.31,1.12,0,1.98.36,2.57,1.07.59.71.89,1.69.89,2.92v9.87h4.41v-10.99c0-1.59-.27-2.89-.82-3.9-.55-1.01-1.28-1.76-2.2-2.24-.92-.48-1.94-.72-3.06-.72-1.19,0-2.23.27-3.11.8-.89.54-1.53,1.29-1.92,2.28h-.63v-2.59h-4.41v17.36h4.41v-9.03Z"/>
      <path class="cls-1" d="M804.91,249.56c0,.79.25,1.45.75,1.96.5.51,1.15.77,1.94.77h7.35v-4.2h-4.69c-.63,0-.94-.35-.94-1.05v-7.91h6.26v-4.2h-6.26v-7.14h-4.41v7.14h-5.14v4.2h5.14v10.43Z"/>
    </g>
  </g>
</svg>