<?xml version="1.0" encoding="UTF-8"?>
<svg id="Ebene_2" data-name="Ebene 2" xmlns="http://www.w3.org/2000/svg" viewBox="0 0 3268.57 1858.52">
  <defs>
    <style>
      .cls-1 {
        fill: none;
        stroke: #415578;
        stroke-linecap: round;
        stroke-miterlimit: 10;
        stroke-width: 3px;
      }
    </style>
  </defs>
  <g id="info">
    <g>
      <line class="cls-1" x1="224.24" y1="245.54" x2="224.24" y2="202.93"/>
      <line class="cls-1" x1="202.94" y1="224.24" x2="245.55" y2="224.24"/>
    </g>
    <g>
      <line class="cls-1" x1="22.81" y1="245.54" x2="22.81" y2="202.94"/>
      <line class="cls-1" x1="1.5" y1="224.24" x2="44.11" y2="224.24"/>
    </g>
    <g>
      <line class="cls-1" x1="22.8" y1="44.11" x2="22.8" y2="1.5"/>
      <line class="cls-1" x1="1.5" y1="22.81" x2="44.11" y2="22.81"/>
    </g>
    <g>
      <line class="cls-1" x1="224.24" y1="44.11" x2="224.24" y2="1.5"/>
      <line class="cls-1" x1="202.94" y1="22.81" x2="245.55" y2="22.81"/>
    </g>
    <g>
      <line class="cls-1" x1="425.68" y1="245.54" x2="425.68" y2="202.93"/>
      <line class="cls-1" x1="404.37" y1="224.24" x2="446.98" y2="224.24"/>
    </g>
    <g>
      <line class="cls-1" x1="425.68" y1="44.11" x2="425.68" y2="1.5"/>
      <line class="cls-1" x1="404.37" y1="22.8" x2="446.98" y2="22.8"/>
    </g>
    <g>
      <line class="cls-1" x1="627.11" y1="245.54" x2="627.11" y2="202.93"/>
      <line class="cls-1" x1="605.81" y1="224.24" x2="648.42" y2="224.24"/>
    </g>
    <g>
      <line class="cls-1" x1="627.11" y1="44.11" x2="627.11" y2="1.5"/>
      <line class="cls-1" x1="605.81" y1="22.81" x2="648.41" y2="22.81"/>
    </g>
    <g>
      <line class="cls-1" x1="828.54" y1="245.54" x2="828.54" y2="202.93"/>
      <line class="cls-1" x1="807.24" y1="224.24" x2="849.85" y2="224.24"/>
    </g>
    <g>
      <line class="cls-1" x1="828.54" y1="44.11" x2="828.54" y2="1.5"/>
      <line class="cls-1" x1="807.24" y1="22.81" x2="849.85" y2="22.81"/>
    </g>
    <g>
      <line class="cls-1" x1="1029.98" y1="245.54" x2="1029.98" y2="202.93"/>
      <line class="cls-1" x1="1008.67" y1="224.24" x2="1051.28" y2="224.24"/>
    </g>
    <g>
      <line class="cls-1" x1="1029.98" y1="44.11" x2="1029.98" y2="1.5"/>
      <line class="cls-1" x1="1008.67" y1="22.81" x2="1051.28" y2="22.81"/>
    </g>
    <g>
      <line class="cls-1" x1="1231.41" y1="245.54" x2="1231.41" y2="202.94"/>
      <line class="cls-1" x1="1210.11" y1="224.24" x2="1252.72" y2="224.24"/>
    </g>
    <g>
      <line class="cls-1" x1="1231.41" y1="44.11" x2="1231.41" y2="1.5"/>
      <line class="cls-1" x1="1210.11" y1="22.81" x2="1252.72" y2="22.81"/>
    </g>
    <g>
      <line class="cls-1" x1="1634.28" y1="245.54" x2="1634.28" y2="202.93"/>
      <line class="cls-1" x1="1612.98" y1="224.24" x2="1655.59" y2="224.24"/>
    </g>
    <g>
      <line class="cls-1" x1="1432.85" y1="245.54" x2="1432.85" y2="202.94"/>
      <line class="cls-1" x1="1411.54" y1="224.24" x2="1454.15" y2="224.24"/>
    </g>
    <g>
      <line class="cls-1" x1="1432.85" y1="44.11" x2="1432.85" y2="1.5"/>
      <line class="cls-1" x1="1411.54" y1="22.81" x2="1454.15" y2="22.81"/>
    </g>
    <g>
      <line class="cls-1" x1="1634.28" y1="44.11" x2="1634.28" y2="1.5"/>
      <line class="cls-1" x1="1612.98" y1="22.81" x2="1655.59" y2="22.81"/>
    </g>
    <g>
      <line class="cls-1" x1="1835.72" y1="245.54" x2="1835.72" y2="202.93"/>
      <line class="cls-1" x1="1814.41" y1="224.24" x2="1857.02" y2="224.24"/>
    </g>
    <g>
      <line class="cls-1" x1="1835.72" y1="44.11" x2="1835.72" y2="1.5"/>
      <line class="cls-1" x1="1814.41" y1="22.8" x2="1857.02" y2="22.8"/>
    </g>
    <g>
      <line class="cls-1" x1="2037.15" y1="245.54" x2="2037.15" y2="202.93"/>
      <line class="cls-1" x1="2015.85" y1="224.24" x2="2058.46" y2="224.24"/>
    </g>
    <g>
      <line class="cls-1" x1="2037.15" y1="44.11" x2="2037.15" y2="1.5"/>
      <line class="cls-1" x1="2015.85" y1="22.81" x2="2058.46" y2="22.81"/>
    </g>
    <g>
      <line class="cls-1" x1="2238.59" y1="245.54" x2="2238.59" y2="202.93"/>
      <line class="cls-1" x1="2217.28" y1="224.24" x2="2259.89" y2="224.24"/>
    </g>
    <g>
      <line class="cls-1" x1="2238.59" y1="44.11" x2="2238.59" y2="1.5"/>
      <line class="cls-1" x1="2217.28" y1="22.81" x2="2259.89" y2="22.81"/>
    </g>
    <g>
      <line class="cls-1" x1="2440.02" y1="245.54" x2="2440.02" y2="202.93"/>
      <line class="cls-1" x1="2418.72" y1="224.24" x2="2461.33" y2="224.24"/>
    </g>
    <g>
      <line class="cls-1" x1="2440.02" y1="44.11" x2="2440.02" y2="1.5"/>
      <line class="cls-1" x1="2418.72" y1="22.81" x2="2461.33" y2="22.81"/>
    </g>
    <g>
      <line class="cls-1" x1="2641.46" y1="245.54" x2="2641.46" y2="202.94"/>
      <line class="cls-1" x1="2620.15" y1="224.24" x2="2662.76" y2="224.24"/>
    </g>
    <g>
      <line class="cls-1" x1="2641.46" y1="44.11" x2="2641.46" y2="1.5"/>
      <line class="cls-1" x1="2620.15" y1="22.81" x2="2662.76" y2="22.81"/>
    </g>
    <g>
      <line class="cls-1" x1="2842.89" y1="245.54" x2="2842.89" y2="202.94"/>
      <line class="cls-1" x1="2821.58" y1="224.24" x2="2864.19" y2="224.24"/>
    </g>
    <g>
      <line class="cls-1" x1="2842.89" y1="44.11" x2="2842.89" y2="1.5"/>
      <line class="cls-1" x1="2821.58" y1="22.81" x2="2864.19" y2="22.81"/>
    </g>
    <g>
      <line class="cls-1" x1="3044.32" y1="245.55" x2="3044.32" y2="202.94"/>
      <line class="cls-1" x1="3023.02" y1="224.24" x2="3065.63" y2="224.24"/>
    </g>
    <g>
      <line class="cls-1" x1="3044.32" y1="44.11" x2="3044.32" y2="1.5"/>
      <line class="cls-1" x1="3023.02" y1="22.81" x2="3065.63" y2="22.81"/>
    </g>
    <g>
      <line class="cls-1" x1="3245.75" y1="245.54" x2="3245.75" y2="202.94"/>
      <line class="cls-1" x1="3224.45" y1="224.24" x2="3267.06" y2="224.24"/>
    </g>
    <g>
      <line class="cls-1" x1="3245.75" y1="44.11" x2="3245.75" y2="1.5"/>
      <line class="cls-1" x1="3224.45" y1="22.81" x2="3267.06" y2="22.81"/>
    </g>
    <g>
      <line class="cls-1" x1="224.24" y1="648.41" x2="224.24" y2="605.8"/>
      <line class="cls-1" x1="202.94" y1="627.11" x2="245.55" y2="627.11"/>
    </g>
    <g>
      <line class="cls-1" x1="22.81" y1="648.41" x2="22.81" y2="605.8"/>
      <line class="cls-1" x1="1.5" y1="627.11" x2="44.11" y2="627.11"/>
    </g>
    <g>
      <line class="cls-1" x1="22.81" y1="446.98" x2="22.81" y2="404.37"/>
      <line class="cls-1" x1="1.5" y1="425.67" x2="44.11" y2="425.67"/>
    </g>
    <g>
      <line class="cls-1" x1="224.24" y1="446.98" x2="224.24" y2="404.37"/>
      <line class="cls-1" x1="202.94" y1="425.67" x2="245.55" y2="425.67"/>
    </g>
    <g>
      <line class="cls-1" x1="425.68" y1="648.41" x2="425.68" y2="605.8"/>
      <line class="cls-1" x1="404.37" y1="627.11" x2="446.98" y2="627.11"/>
    </g>
    <g>
      <line class="cls-1" x1="425.68" y1="446.98" x2="425.68" y2="404.37"/>
      <line class="cls-1" x1="404.37" y1="425.67" x2="446.98" y2="425.67"/>
    </g>
    <g>
      <line class="cls-1" x1="627.11" y1="648.41" x2="627.11" y2="605.8"/>
      <line class="cls-1" x1="605.81" y1="627.11" x2="648.42" y2="627.11"/>
    </g>
    <g>
      <line class="cls-1" x1="627.11" y1="446.98" x2="627.11" y2="404.37"/>
      <line class="cls-1" x1="605.81" y1="425.67" x2="648.42" y2="425.67"/>
    </g>
    <g>
      <line class="cls-1" x1="828.55" y1="648.41" x2="828.55" y2="605.8"/>
      <line class="cls-1" x1="807.24" y1="627.11" x2="849.85" y2="627.11"/>
    </g>
    <g>
      <line class="cls-1" x1="828.55" y1="446.98" x2="828.55" y2="404.37"/>
      <line class="cls-1" x1="807.24" y1="425.67" x2="849.85" y2="425.67"/>
    </g>
    <g>
      <line class="cls-1" x1="1029.98" y1="648.41" x2="1029.98" y2="605.8"/>
      <line class="cls-1" x1="1008.68" y1="627.11" x2="1051.29" y2="627.11"/>
    </g>
    <g>
      <line class="cls-1" x1="1029.98" y1="446.98" x2="1029.98" y2="404.37"/>
      <line class="cls-1" x1="1008.68" y1="425.67" x2="1051.29" y2="425.67"/>
    </g>
    <g>
      <line class="cls-1" x1="1231.42" y1="648.41" x2="1231.42" y2="605.8"/>
      <line class="cls-1" x1="1210.11" y1="627.11" x2="1252.72" y2="627.11"/>
    </g>
    <g>
      <line class="cls-1" x1="1231.42" y1="446.98" x2="1231.42" y2="404.37"/>
      <line class="cls-1" x1="1210.11" y1="425.67" x2="1252.72" y2="425.67"/>
    </g>
    <g>
      <line class="cls-1" x1="1634.29" y1="648.41" x2="1634.29" y2="605.8"/>
      <line class="cls-1" x1="1612.98" y1="627.11" x2="1655.59" y2="627.11"/>
    </g>
    <g>
      <line class="cls-1" x1="1432.85" y1="648.41" x2="1432.85" y2="605.8"/>
      <line class="cls-1" x1="1411.55" y1="627.11" x2="1454.16" y2="627.11"/>
    </g>
    <g>
      <line class="cls-1" x1="1432.85" y1="446.98" x2="1432.85" y2="404.37"/>
      <line class="cls-1" x1="1411.55" y1="425.67" x2="1454.15" y2="425.67"/>
    </g>
    <g>
      <line class="cls-1" x1="1634.29" y1="446.98" x2="1634.29" y2="404.37"/>
      <line class="cls-1" x1="1612.98" y1="425.67" x2="1655.59" y2="425.67"/>
    </g>
    <g>
      <line class="cls-1" x1="1835.72" y1="648.41" x2="1835.72" y2="605.8"/>
      <line class="cls-1" x1="1814.42" y1="627.11" x2="1857.03" y2="627.11"/>
    </g>
    <g>
      <line class="cls-1" x1="1835.72" y1="446.98" x2="1835.72" y2="404.37"/>
      <line class="cls-1" x1="1814.42" y1="425.67" x2="1857.03" y2="425.67"/>
    </g>
    <g>
      <line class="cls-1" x1="2037.16" y1="648.41" x2="2037.16" y2="605.8"/>
      <line class="cls-1" x1="2015.85" y1="627.11" x2="2058.46" y2="627.11"/>
    </g>
    <g>
      <line class="cls-1" x1="2037.16" y1="446.98" x2="2037.16" y2="404.37"/>
      <line class="cls-1" x1="2015.85" y1="425.67" x2="2058.46" y2="425.67"/>
    </g>
    <g>
      <line class="cls-1" x1="2238.59" y1="648.41" x2="2238.59" y2="605.8"/>
      <line class="cls-1" x1="2217.29" y1="627.11" x2="2259.9" y2="627.11"/>
    </g>
    <g>
      <line class="cls-1" x1="2238.59" y1="446.98" x2="2238.59" y2="404.37"/>
      <line class="cls-1" x1="2217.28" y1="425.67" x2="2259.89" y2="425.67"/>
    </g>
    <g>
      <line class="cls-1" x1="2440.02" y1="648.41" x2="2440.02" y2="605.8"/>
      <line class="cls-1" x1="2418.72" y1="627.11" x2="2461.33" y2="627.11"/>
    </g>
    <g>
      <line class="cls-1" x1="2440.02" y1="446.98" x2="2440.02" y2="404.37"/>
      <line class="cls-1" x1="2418.72" y1="425.67" x2="2461.33" y2="425.67"/>
    </g>
    <g>
      <line class="cls-1" x1="2641.46" y1="648.41" x2="2641.46" y2="605.8"/>
      <line class="cls-1" x1="2620.15" y1="627.11" x2="2662.76" y2="627.11"/>
    </g>
    <g>
      <line class="cls-1" x1="2641.46" y1="446.98" x2="2641.46" y2="404.37"/>
      <line class="cls-1" x1="2620.15" y1="425.67" x2="2662.76" y2="425.67"/>
    </g>
    <g>
      <line class="cls-1" x1="2842.89" y1="648.41" x2="2842.89" y2="605.8"/>
      <line class="cls-1" x1="2821.58" y1="627.11" x2="2864.19" y2="627.11"/>
    </g>
    <g>
      <line class="cls-1" x1="2842.89" y1="446.98" x2="2842.89" y2="404.37"/>
      <line class="cls-1" x1="2821.58" y1="425.67" x2="2864.19" y2="425.67"/>
    </g>
    <g>
      <line class="cls-1" x1="3044.32" y1="648.41" x2="3044.32" y2="605.8"/>
      <line class="cls-1" x1="3023.02" y1="627.11" x2="3065.63" y2="627.11"/>
    </g>
    <g>
      <line class="cls-1" x1="3044.32" y1="446.98" x2="3044.32" y2="404.37"/>
      <line class="cls-1" x1="3023.02" y1="425.67" x2="3065.63" y2="425.67"/>
    </g>
    <g>
      <line class="cls-1" x1="3245.76" y1="648.41" x2="3245.76" y2="605.8"/>
      <line class="cls-1" x1="3224.45" y1="627.11" x2="3267.06" y2="627.11"/>
    </g>
    <g>
      <line class="cls-1" x1="3245.76" y1="446.98" x2="3245.76" y2="404.37"/>
      <line class="cls-1" x1="3224.45" y1="425.67" x2="3267.06" y2="425.67"/>
    </g>
    <g>
      <line class="cls-1" x1="224.25" y1="1051.28" x2="224.25" y2="1008.67"/>
      <line class="cls-1" x1="202.94" y1="1029.98" x2="245.55" y2="1029.98"/>
    </g>
    <g>
      <line class="cls-1" x1="22.81" y1="1051.28" x2="22.81" y2="1008.67"/>
      <line class="cls-1" x1="1.51" y1="1029.98" x2="44.12" y2="1029.98"/>
    </g>
    <g>
      <line class="cls-1" x1="22.81" y1="849.85" x2="22.81" y2="807.24"/>
      <line class="cls-1" x1="1.51" y1="828.54" x2="44.12" y2="828.54"/>
    </g>
    <g>
      <line class="cls-1" x1="224.25" y1="849.85" x2="224.25" y2="807.24"/>
      <line class="cls-1" x1="202.94" y1="828.54" x2="245.55" y2="828.54"/>
    </g>
    <g>
      <line class="cls-1" x1="425.68" y1="1051.28" x2="425.68" y2="1008.67"/>
      <line class="cls-1" x1="404.38" y1="1029.98" x2="446.99" y2="1029.98"/>
    </g>
    <g>
      <line class="cls-1" x1="425.68" y1="849.85" x2="425.68" y2="807.24"/>
      <line class="cls-1" x1="404.38" y1="828.54" x2="446.99" y2="828.54"/>
    </g>
    <g>
      <line class="cls-1" x1="627.12" y1="1051.28" x2="627.12" y2="1008.67"/>
      <line class="cls-1" x1="605.81" y1="1029.98" x2="648.42" y2="1029.98"/>
    </g>
    <g>
      <line class="cls-1" x1="627.12" y1="849.85" x2="627.12" y2="807.24"/>
      <line class="cls-1" x1="605.81" y1="828.54" x2="648.42" y2="828.54"/>
    </g>
    <g>
      <line class="cls-1" x1="828.55" y1="1051.28" x2="828.55" y2="1008.67"/>
      <line class="cls-1" x1="807.25" y1="1029.98" x2="849.86" y2="1029.98"/>
    </g>
    <g>
      <line class="cls-1" x1="828.55" y1="849.85" x2="828.55" y2="807.24"/>
      <line class="cls-1" x1="807.25" y1="828.54" x2="849.86" y2="828.54"/>
    </g>
    <g>
      <line class="cls-1" x1="1029.99" y1="1051.28" x2="1029.99" y2="1008.67"/>
      <line class="cls-1" x1="1008.68" y1="1029.98" x2="1051.29" y2="1029.98"/>
    </g>
    <g>
      <line class="cls-1" x1="1029.99" y1="849.85" x2="1029.99" y2="807.24"/>
      <line class="cls-1" x1="1008.68" y1="828.54" x2="1051.29" y2="828.54"/>
    </g>
    <g>
      <line class="cls-1" x1="1231.42" y1="1051.28" x2="1231.42" y2="1008.67"/>
      <line class="cls-1" x1="1210.12" y1="1029.98" x2="1252.72" y2="1029.98"/>
    </g>
    <g>
      <line class="cls-1" x1="1231.42" y1="849.85" x2="1231.42" y2="807.24"/>
      <line class="cls-1" x1="1210.12" y1="828.54" x2="1252.72" y2="828.54"/>
    </g>
    <g>
      <line class="cls-1" x1="1634.29" y1="1051.28" x2="1634.29" y2="1008.67"/>
      <line class="cls-1" x1="1612.99" y1="1029.98" x2="1655.6" y2="1029.98"/>
    </g>
    <g>
      <line class="cls-1" x1="1432.86" y1="1051.28" x2="1432.86" y2="1008.67"/>
      <line class="cls-1" x1="1411.55" y1="1029.98" x2="1454.16" y2="1029.98"/>
    </g>
    <g>
      <line class="cls-1" x1="1432.85" y1="849.85" x2="1432.85" y2="807.24"/>
      <line class="cls-1" x1="1411.55" y1="828.54" x2="1454.16" y2="828.54"/>
    </g>
    <g>
      <line class="cls-1" x1="1634.29" y1="849.85" x2="1634.29" y2="807.24"/>
      <line class="cls-1" x1="1612.99" y1="828.54" x2="1655.6" y2="828.54"/>
    </g>
    <g>
      <line class="cls-1" x1="1835.73" y1="1051.28" x2="1835.73" y2="1008.67"/>
      <line class="cls-1" x1="1814.42" y1="1029.98" x2="1857.03" y2="1029.98"/>
    </g>
    <g>
      <line class="cls-1" x1="1835.73" y1="849.85" x2="1835.73" y2="807.24"/>
      <line class="cls-1" x1="1814.42" y1="828.54" x2="1857.03" y2="828.54"/>
    </g>
    <g>
      <line class="cls-1" x1="2037.16" y1="1051.28" x2="2037.16" y2="1008.67"/>
      <line class="cls-1" x1="2015.86" y1="1029.98" x2="2058.46" y2="1029.98"/>
    </g>
    <g>
      <line class="cls-1" x1="2037.16" y1="849.85" x2="2037.16" y2="807.24"/>
      <line class="cls-1" x1="2015.85" y1="828.54" x2="2058.46" y2="828.54"/>
    </g>
    <g>
      <line class="cls-1" x1="2238.59" y1="1051.28" x2="2238.59" y2="1008.67"/>
      <line class="cls-1" x1="2217.29" y1="1029.98" x2="2259.9" y2="1029.98"/>
    </g>
    <g>
      <line class="cls-1" x1="2238.59" y1="849.85" x2="2238.59" y2="807.24"/>
      <line class="cls-1" x1="2217.29" y1="828.54" x2="2259.9" y2="828.54"/>
    </g>
    <g>
      <line class="cls-1" x1="2440.03" y1="1051.28" x2="2440.03" y2="1008.67"/>
      <line class="cls-1" x1="2418.72" y1="1029.98" x2="2461.33" y2="1029.98"/>
    </g>
    <g>
      <line class="cls-1" x1="2440.03" y1="849.85" x2="2440.03" y2="807.24"/>
      <line class="cls-1" x1="2418.72" y1="828.54" x2="2461.33" y2="828.54"/>
    </g>
    <g>
      <line class="cls-1" x1="2641.46" y1="1051.28" x2="2641.46" y2="1008.67"/>
      <line class="cls-1" x1="2620.16" y1="1029.98" x2="2662.77" y2="1029.98"/>
    </g>
    <g>
      <line class="cls-1" x1="2641.46" y1="849.85" x2="2641.46" y2="807.24"/>
      <line class="cls-1" x1="2620.16" y1="828.54" x2="2662.77" y2="828.54"/>
    </g>
    <g>
      <line class="cls-1" x1="2842.89" y1="1051.28" x2="2842.89" y2="1008.67"/>
      <line class="cls-1" x1="2821.59" y1="1029.98" x2="2864.2" y2="1029.98"/>
    </g>
    <g>
      <line class="cls-1" x1="2842.89" y1="849.85" x2="2842.89" y2="807.24"/>
      <line class="cls-1" x1="2821.59" y1="828.54" x2="2864.2" y2="828.54"/>
    </g>
    <g>
      <line class="cls-1" x1="3044.33" y1="1051.28" x2="3044.33" y2="1008.67"/>
      <line class="cls-1" x1="3023.02" y1="1029.98" x2="3065.63" y2="1029.98"/>
    </g>
    <g>
      <line class="cls-1" x1="3044.33" y1="849.85" x2="3044.33" y2="807.24"/>
      <line class="cls-1" x1="3023.02" y1="828.54" x2="3065.63" y2="828.54"/>
    </g>
    <g>
      <line class="cls-1" x1="3245.76" y1="1051.28" x2="3245.76" y2="1008.67"/>
      <line class="cls-1" x1="3224.46" y1="1029.98" x2="3267.07" y2="1029.98"/>
    </g>
    <g>
      <line class="cls-1" x1="3245.76" y1="849.85" x2="3245.76" y2="807.24"/>
      <line class="cls-1" x1="3224.46" y1="828.54" x2="3267.07" y2="828.54"/>
    </g>
    <g>
      <line class="cls-1" x1="224.25" y1="1454.15" x2="224.25" y2="1411.54"/>
      <line class="cls-1" x1="202.95" y1="1432.85" x2="245.56" y2="1432.85"/>
    </g>
    <g>
      <line class="cls-1" x1="22.82" y1="1454.15" x2="22.82" y2="1411.54"/>
      <line class="cls-1" x1="1.51" y1="1432.85" x2="44.12" y2="1432.85"/>
    </g>
    <g>
      <line class="cls-1" x1="22.82" y1="1252.72" x2="22.82" y2="1210.11"/>
      <line class="cls-1" x1="1.51" y1="1231.41" x2="44.12" y2="1231.41"/>
    </g>
    <g>
      <line class="cls-1" x1="224.25" y1="1252.72" x2="224.25" y2="1210.11"/>
      <line class="cls-1" x1="202.95" y1="1231.41" x2="245.56" y2="1231.41"/>
    </g>
    <g>
      <line class="cls-1" x1="425.69" y1="1454.15" x2="425.69" y2="1411.54"/>
      <line class="cls-1" x1="404.38" y1="1432.84" x2="446.99" y2="1432.84"/>
    </g>
    <g>
      <line class="cls-1" x1="425.69" y1="1252.72" x2="425.69" y2="1210.11"/>
      <line class="cls-1" x1="404.38" y1="1231.41" x2="446.99" y2="1231.41"/>
    </g>
    <g>
      <line class="cls-1" x1="627.12" y1="1454.15" x2="627.12" y2="1411.54"/>
      <line class="cls-1" x1="605.82" y1="1432.85" x2="648.43" y2="1432.85"/>
    </g>
    <g>
      <line class="cls-1" x1="627.12" y1="1252.72" x2="627.12" y2="1210.11"/>
      <line class="cls-1" x1="605.82" y1="1231.41" x2="648.43" y2="1231.41"/>
    </g>
    <g>
      <line class="cls-1" x1="828.56" y1="1454.15" x2="828.56" y2="1411.54"/>
      <line class="cls-1" x1="807.25" y1="1432.85" x2="849.86" y2="1432.85"/>
    </g>
    <g>
      <line class="cls-1" x1="828.56" y1="1252.72" x2="828.56" y2="1210.11"/>
      <line class="cls-1" x1="807.25" y1="1231.41" x2="849.86" y2="1231.41"/>
    </g>
    <g>
      <line class="cls-1" x1="1029.99" y1="1454.15" x2="1029.99" y2="1411.54"/>
      <line class="cls-1" x1="1008.69" y1="1432.85" x2="1051.3" y2="1432.85"/>
    </g>
    <g>
      <line class="cls-1" x1="1029.99" y1="1252.72" x2="1029.99" y2="1210.11"/>
      <line class="cls-1" x1="1008.69" y1="1231.41" x2="1051.29" y2="1231.41"/>
    </g>
    <g>
      <line class="cls-1" x1="1231.42" y1="1454.15" x2="1231.42" y2="1411.54"/>
      <line class="cls-1" x1="1210.12" y1="1432.85" x2="1252.73" y2="1432.85"/>
    </g>
    <g>
      <line class="cls-1" x1="1231.42" y1="1252.72" x2="1231.42" y2="1210.11"/>
      <line class="cls-1" x1="1210.12" y1="1231.41" x2="1252.73" y2="1231.41"/>
    </g>
    <g>
      <line class="cls-1" x1="1634.3" y1="1454.15" x2="1634.3" y2="1411.54"/>
      <line class="cls-1" x1="1612.99" y1="1432.85" x2="1655.6" y2="1432.85"/>
    </g>
    <g>
      <line class="cls-1" x1="1432.86" y1="1454.15" x2="1432.86" y2="1411.54"/>
      <line class="cls-1" x1="1411.55" y1="1432.85" x2="1454.16" y2="1432.85"/>
    </g>
    <g>
      <line class="cls-1" x1="1432.86" y1="1252.72" x2="1432.86" y2="1210.11"/>
      <line class="cls-1" x1="1411.55" y1="1231.41" x2="1454.16" y2="1231.41"/>
    </g>
    <g>
      <line class="cls-1" x1="1634.29" y1="1252.72" x2="1634.29" y2="1210.11"/>
      <line class="cls-1" x1="1612.99" y1="1231.41" x2="1655.6" y2="1231.41"/>
    </g>
    <g>
      <line class="cls-1" x1="1835.73" y1="1454.15" x2="1835.73" y2="1411.54"/>
      <line class="cls-1" x1="1814.43" y1="1432.84" x2="1857.03" y2="1432.84"/>
    </g>
    <g>
      <line class="cls-1" x1="1835.73" y1="1252.72" x2="1835.73" y2="1210.11"/>
      <line class="cls-1" x1="1814.42" y1="1231.41" x2="1857.03" y2="1231.41"/>
    </g>
    <g>
      <line class="cls-1" x1="2037.16" y1="1454.15" x2="2037.16" y2="1411.54"/>
      <line class="cls-1" x1="2015.86" y1="1432.85" x2="2058.47" y2="1432.85"/>
    </g>
    <g>
      <line class="cls-1" x1="2037.16" y1="1252.72" x2="2037.16" y2="1210.11"/>
      <line class="cls-1" x1="2015.86" y1="1231.41" x2="2058.47" y2="1231.41"/>
    </g>
    <g>
      <line class="cls-1" x1="2238.6" y1="1454.15" x2="2238.6" y2="1411.54"/>
      <line class="cls-1" x1="2217.29" y1="1432.85" x2="2259.9" y2="1432.85"/>
    </g>
    <g>
      <line class="cls-1" x1="2238.6" y1="1252.72" x2="2238.6" y2="1210.11"/>
      <line class="cls-1" x1="2217.29" y1="1231.41" x2="2259.9" y2="1231.41"/>
    </g>
    <g>
      <line class="cls-1" x1="2440.03" y1="1454.15" x2="2440.03" y2="1411.54"/>
      <line class="cls-1" x1="2418.73" y1="1432.85" x2="2461.34" y2="1432.85"/>
    </g>
    <g>
      <line class="cls-1" x1="2440.03" y1="1252.72" x2="2440.03" y2="1210.11"/>
      <line class="cls-1" x1="2418.73" y1="1231.41" x2="2461.34" y2="1231.41"/>
    </g>
    <g>
      <line class="cls-1" x1="2641.47" y1="1454.15" x2="2641.47" y2="1411.54"/>
      <line class="cls-1" x1="2620.16" y1="1432.85" x2="2662.77" y2="1432.85"/>
    </g>
    <g>
      <line class="cls-1" x1="2641.47" y1="1252.72" x2="2641.47" y2="1210.11"/>
      <line class="cls-1" x1="2620.16" y1="1231.41" x2="2662.77" y2="1231.41"/>
    </g>
    <g>
      <line class="cls-1" x1="2842.9" y1="1454.15" x2="2842.9" y2="1411.54"/>
      <line class="cls-1" x1="2821.59" y1="1432.85" x2="2864.2" y2="1432.85"/>
    </g>
    <g>
      <line class="cls-1" x1="2842.9" y1="1252.72" x2="2842.9" y2="1210.11"/>
      <line class="cls-1" x1="2821.59" y1="1231.41" x2="2864.2" y2="1231.41"/>
    </g>
    <g>
      <line class="cls-1" x1="3044.33" y1="1454.15" x2="3044.33" y2="1411.54"/>
      <line class="cls-1" x1="3023.03" y1="1432.85" x2="3065.64" y2="1432.85"/>
    </g>
    <g>
      <line class="cls-1" x1="3044.33" y1="1252.72" x2="3044.33" y2="1210.11"/>
      <line class="cls-1" x1="3023.03" y1="1231.41" x2="3065.64" y2="1231.41"/>
    </g>
    <g>
      <line class="cls-1" x1="3245.77" y1="1454.15" x2="3245.77" y2="1411.54"/>
      <line class="cls-1" x1="3224.46" y1="1432.85" x2="3267.07" y2="1432.85"/>
    </g>
    <g>
      <line class="cls-1" x1="3245.77" y1="1252.72" x2="3245.77" y2="1210.11"/>
      <line class="cls-1" x1="3224.46" y1="1231.41" x2="3267.07" y2="1231.41"/>
    </g>
    <g>
      <line class="cls-1" x1="224.26" y1="1857.02" x2="224.26" y2="1814.41"/>
      <line class="cls-1" x1="202.95" y1="1835.71" x2="245.56" y2="1835.71"/>
    </g>
    <g>
      <line class="cls-1" x1="22.82" y1="1857.02" x2="22.82" y2="1814.41"/>
      <line class="cls-1" x1="1.52" y1="1835.71" x2="44.13" y2="1835.71"/>
    </g>
    <g>
      <line class="cls-1" x1="22.82" y1="1655.58" x2="22.82" y2="1612.98"/>
      <line class="cls-1" x1="1.52" y1="1634.28" x2="44.12" y2="1634.28"/>
    </g>
    <g>
      <line class="cls-1" x1="224.26" y1="1655.58" x2="224.26" y2="1612.98"/>
      <line class="cls-1" x1="202.95" y1="1634.28" x2="245.56" y2="1634.28"/>
    </g>
    <g>
      <line class="cls-1" x1="425.69" y1="1857.02" x2="425.69" y2="1814.41"/>
      <line class="cls-1" x1="404.39" y1="1835.71" x2="447" y2="1835.71"/>
    </g>
    <g>
      <line class="cls-1" x1="425.69" y1="1655.58" x2="425.69" y2="1612.97"/>
      <line class="cls-1" x1="404.39" y1="1634.28" x2="447" y2="1634.28"/>
    </g>
    <g>
      <line class="cls-1" x1="627.13" y1="1857.02" x2="627.13" y2="1814.41"/>
      <line class="cls-1" x1="605.82" y1="1835.71" x2="648.43" y2="1835.71"/>
    </g>
    <g>
      <line class="cls-1" x1="627.13" y1="1655.58" x2="627.13" y2="1612.98"/>
      <line class="cls-1" x1="605.82" y1="1634.28" x2="648.43" y2="1634.28"/>
    </g>
    <g>
      <line class="cls-1" x1="828.56" y1="1857.02" x2="828.56" y2="1814.41"/>
      <line class="cls-1" x1="807.26" y1="1835.71" x2="849.86" y2="1835.71"/>
    </g>
    <g>
      <line class="cls-1" x1="828.56" y1="1655.58" x2="828.56" y2="1612.98"/>
      <line class="cls-1" x1="807.25" y1="1634.28" x2="849.86" y2="1634.28"/>
    </g>
    <g>
      <line class="cls-1" x1="1029.99" y1="1857.02" x2="1029.99" y2="1814.41"/>
      <line class="cls-1" x1="1008.69" y1="1835.71" x2="1051.3" y2="1835.71"/>
    </g>
    <g>
      <line class="cls-1" x1="1029.99" y1="1655.58" x2="1029.99" y2="1612.98"/>
      <line class="cls-1" x1="1008.69" y1="1634.28" x2="1051.3" y2="1634.28"/>
    </g>
    <g>
      <line class="cls-1" x1="1231.43" y1="1857.02" x2="1231.43" y2="1814.41"/>
      <line class="cls-1" x1="1210.12" y1="1835.71" x2="1252.73" y2="1835.71"/>
    </g>
    <g>
      <line class="cls-1" x1="1231.43" y1="1655.58" x2="1231.43" y2="1612.98"/>
      <line class="cls-1" x1="1210.12" y1="1634.28" x2="1252.73" y2="1634.28"/>
    </g>
    <g>
      <line class="cls-1" x1="1634.3" y1="1857.02" x2="1634.3" y2="1814.41"/>
      <line class="cls-1" x1="1612.99" y1="1835.71" x2="1655.6" y2="1835.71"/>
    </g>
    <g>
      <line class="cls-1" x1="1432.86" y1="1857.02" x2="1432.86" y2="1814.41"/>
      <line class="cls-1" x1="1411.56" y1="1835.71" x2="1454.17" y2="1835.71"/>
    </g>
    <g>
      <line class="cls-1" x1="1432.86" y1="1655.58" x2="1432.86" y2="1612.98"/>
      <line class="cls-1" x1="1411.56" y1="1634.28" x2="1454.17" y2="1634.28"/>
    </g>
    <g>
      <line class="cls-1" x1="1634.3" y1="1655.58" x2="1634.3" y2="1612.98"/>
      <line class="cls-1" x1="1612.99" y1="1634.28" x2="1655.6" y2="1634.28"/>
    </g>
    <g>
      <line class="cls-1" x1="1835.73" y1="1857.02" x2="1835.73" y2="1814.41"/>
      <line class="cls-1" x1="1814.43" y1="1835.71" x2="1857.04" y2="1835.71"/>
    </g>
    <g>
      <line class="cls-1" x1="1835.73" y1="1655.58" x2="1835.73" y2="1612.97"/>
      <line class="cls-1" x1="1814.43" y1="1634.28" x2="1857.04" y2="1634.28"/>
    </g>
    <g>
      <line class="cls-1" x1="2037.17" y1="1857.02" x2="2037.17" y2="1814.41"/>
      <line class="cls-1" x1="2015.86" y1="1835.71" x2="2058.47" y2="1835.71"/>
    </g>
    <g>
      <line class="cls-1" x1="2037.17" y1="1655.58" x2="2037.17" y2="1612.98"/>
      <line class="cls-1" x1="2015.86" y1="1634.28" x2="2058.47" y2="1634.28"/>
    </g>
    <g>
      <line class="cls-1" x1="2238.6" y1="1857.02" x2="2238.6" y2="1814.41"/>
      <line class="cls-1" x1="2217.3" y1="1835.71" x2="2259.91" y2="1835.71"/>
    </g>
    <g>
      <line class="cls-1" x1="2238.6" y1="1655.58" x2="2238.6" y2="1612.98"/>
      <line class="cls-1" x1="2217.3" y1="1634.28" x2="2259.91" y2="1634.28"/>
    </g>
    <g>
      <line class="cls-1" x1="2440.04" y1="1857.02" x2="2440.04" y2="1814.41"/>
      <line class="cls-1" x1="2418.73" y1="1835.71" x2="2461.34" y2="1835.71"/>
    </g>
    <g>
      <line class="cls-1" x1="2440.04" y1="1655.58" x2="2440.04" y2="1612.98"/>
      <line class="cls-1" x1="2418.73" y1="1634.28" x2="2461.34" y2="1634.28"/>
    </g>
    <g>
      <line class="cls-1" x1="2641.47" y1="1857.02" x2="2641.47" y2="1814.41"/>
      <line class="cls-1" x1="2620.17" y1="1835.71" x2="2662.78" y2="1835.71"/>
    </g>
    <g>
      <line class="cls-1" x1="2641.47" y1="1655.58" x2="2641.47" y2="1612.98"/>
      <line class="cls-1" x1="2620.17" y1="1634.28" x2="2662.78" y2="1634.28"/>
    </g>
    <g>
      <line class="cls-1" x1="2842.9" y1="1857.02" x2="2842.9" y2="1814.41"/>
      <line class="cls-1" x1="2821.6" y1="1835.71" x2="2864.21" y2="1835.71"/>
    </g>
    <g>
      <line class="cls-1" x1="2842.9" y1="1655.59" x2="2842.9" y2="1612.98"/>
      <line class="cls-1" x1="2821.6" y1="1634.28" x2="2864.21" y2="1634.28"/>
    </g>
    <g>
      <line class="cls-1" x1="3044.34" y1="1857.02" x2="3044.34" y2="1814.41"/>
      <line class="cls-1" x1="3023.03" y1="1835.72" x2="3065.64" y2="1835.72"/>
    </g>
    <g>
      <line class="cls-1" x1="3044.34" y1="1655.59" x2="3044.34" y2="1612.98"/>
      <line class="cls-1" x1="3023.03" y1="1634.28" x2="3065.64" y2="1634.28"/>
    </g>
    <g>
      <line class="cls-1" x1="3245.77" y1="1857.02" x2="3245.77" y2="1814.41"/>
      <line class="cls-1" x1="3224.47" y1="1835.71" x2="3267.07" y2="1835.71"/>
    </g>
    <g>
      <line class="cls-1" x1="3245.77" y1="1655.58" x2="3245.77" y2="1612.98"/>
      <line class="cls-1" x1="3224.47" y1="1634.28" x2="3267.07" y2="1634.28"/>
    </g>
  </g>
</svg>