<?xml version="1.0" encoding="UTF-8"?>
<svg id="Ebene_2" data-name="Ebene 2" xmlns="http://www.w3.org/2000/svg" viewBox="0 0 1559.14 521.61">
  <defs>
    <style>
      .cls-1 {
        fill: #1d1d1b;
      }

      .cls-2 {
        stroke-width: 1.11px;
      }

      .cls-2, .cls-3 {
        fill: none;
        stroke: #e6007e;
        stroke-miterlimit: 10;
      }

      .cls-3 {
        stroke-width: 1.11px;
      }
    </style>
  </defs>
  <g id="design">
    <path class="cls-1" d="M171.19,69.54h-59.43v72.18c0,4.19-3.4,7.59-7.59,7.59H36.81v55.65s73.66,0,73.66,0v126.21c0,39.33,23.78,63.76,62.05,63.76h99.31v-55.57h-100.64v-134.4s100.64,0,100.64,0v-55.65s-100.64,0-100.64,0v-79.77Z"/>
    <path class="cls-1" d="M1094.09,313.66c-9.57,20.61-25.13,30.63-47.57,30.63-15.08,0-50.17-5.22-50.17-53.57v-37.38c0-33.55,18.44-53.57,49.32-53.57,21.18,0,35.18,9.08,41.6,26.99l5.12,14.26,51.09-27.14-4.56-11.01c-15.67-37.82-48.78-58.64-93.25-58.64-68.09,0-112.09,50.16-112.09,127.8s44.17,127.8,112.51,127.8c44.83,0,79.87-21.45,96.13-58.86l4.32-9.94-45.93-31.43-6.52,14.05Z"/>
    <polygon class="cls-1" points="1351.21 249.7 1457.53 149.33 1377.79 149.33 1300.83 220.03 1283.03 236.85 1283.03 54.19 1222.82 54.19 1222.82 394.74 1283.03 394.74 1283.03 307.99 1305.88 287.2 1386.54 394.74 1461.61 394.74 1351.21 249.7"/>
    <path class="cls-1" d="M651.76,149.33c-38.24,0-72.45,17.58-94.98,45.07-22.54-27.49-56.74-45.07-94.98-45.07-67.71,0-122.79,55.08-122.79,122.79h0c0,37.04-30.13,67.17-67.17,67.17v55.62c38.24,0,72.45-17.58,94.98-45.07,22.54,27.49,56.74,45.07,94.98,45.07,67.71,0,122.79-55.08,122.79-122.79,0-37.04,30.13-67.17,67.17-67.17h0v-55.62h0ZM461.8,339.3c-37.04,0-67.17-30.13-67.17-67.17s30.13-67.17,67.17-67.17,67.17,30.13,67.17,67.17-30.13,67.17-67.17,67.17Z"/>
    <path class="cls-1" d="M828.41,209.52h54.32v-60.21h-43.7c-26.22,0-47.42,7.88-62.92,23.15v-23.15h-124.35v55.65h64.1v-.53h.04v135.18h-64.14v55.12h209.3v-55.12h-84.95v-81.61c0-23.43,13.74-48.47,52.3-48.47Z"/>
  </g>
  <g id="info">
    <line class="cls-3" x1="882.73" y1="0" x2="882.73" y2="450.55"/>
    <line class="cls-3" x1="908.16" y1="0" x2="908.16" y2="450.55"/>
    <line class="cls-3" x1="933.58" y1="1.91" x2="933.58" y2="450.55"/>
    <line class="cls-2" x1="1146.54" y1="0" x2="1146.54" y2="450.55"/>
    <line class="cls-2" x1="1171.97" y1="0" x2="1171.97" y2="450.55"/>
    <line class="cls-2" x1="1197.39" y1="1.91" x2="1197.39" y2="450.55"/>
    <line class="cls-2" x1="1222.82" y1=".21" x2="1222.82" y2="450.55"/>
    <line class="cls-2" x1="1.97" y1="149.33" x2="1559.14" y2="149.31"/>
    <line class="cls-2" x1="1.97" y1="204.96" x2="1559.14" y2="204.94"/>
    <line class="cls-2" x1="0" y1="394.94" x2="1557.17" y2="394.92"/>
    <line class="cls-2" x1="0" y1="339.93" x2="1557.17" y2="339.91"/>
    <line class="cls-2" x1="0" y1="450.94" x2="1557.17" y2="450.92"/>
    <line class="cls-2" x1="0" y1="505.95" x2="1557.17" y2="505.93"/>
    <line class="cls-2" x1="651.76" y1="323.42" x2="651.76" y2="521.61"/>
    <line class="cls-2" x1="1461.61" y1="323.42" x2="1461.61" y2="521.61"/>
  </g>
</svg>