<?xml version="1.0" encoding="UTF-8"?>
<svg id="Ebene_2" data-name="Ebene 2" xmlns="http://www.w3.org/2000/svg" viewBox="0 0 862.17 273.25">
  <defs>
    <style>
      .cls-1 {
        fill: #f5f0eb;
      }

      .cls-2 {
        fill: #f0fa28;
      }

      .cls-3 {
        fill: #3f577a;
      }
    </style>
  </defs>
  <g id="design">
    <path class="cls-1" d="M81.31,57.56h60.9v33.67h-60.9v81.32h60.9v33.63h-60.09c-23.16,0-37.55-14.78-37.55-38.58v-76.37H0v-33.67h40.76c2.53,0,4.59-2.05,4.59-4.59V9.29h35.96v48.27ZM639.77,157.01c-5.79,12.47-15.21,18.54-28.79,18.54-9.13,0-30.36-3.16-30.36-32.42v-22.62c0-20.3,11.16-32.42,29.85-32.42,12.82,0,21.29,5.5,25.17,16.33l3.1,8.63,30.92-16.42-2.76-6.66c-9.48-22.88-29.52-35.49-56.43-35.49-41.2,0-67.82,30.35-67.82,77.34s26.72,77.34,68.08,77.34c27.13,0,48.33-12.98,58.17-35.62l2.61-6.01-27.79-19.02-3.95,8.5ZM795.36,118.3l64.34-60.73h-48.25l-46.57,42.78-10.77,10.17V0h-36.44v206.07h36.44v-52.49l13.83-12.58,48.81,65.08h45.43l-66.81-87.77ZM372.11,57.57v33.66h0c-22.41,0-40.65,18.23-40.65,40.65,0,40.97-33.33,74.3-74.3,74.3-23.14,0-43.84-10.64-57.48-27.27-13.64,16.64-34.34,27.27-57.48,27.27v-33.66c22.41,0,40.65-18.23,40.65-40.65h0c0-40.97,33.33-74.3,74.3-74.3,23.14,0,43.84,10.64,57.48,27.27,13.64-16.64,34.34-27.27,57.48-27.27h0ZM297.81,131.88c0-22.41-18.23-40.65-40.65-40.65s-40.65,18.23-40.65,40.65,18.23,40.65,40.65,40.65,40.65-18.23,40.65-40.65ZM479.01,93.99h32.87v-36.44h-26.44c-15.87,0-28.69,4.77-38.07,14.01v-14.01h-75.25v33.67h38.79v-.32h.02v81.8h-38.81v33.35h126.65v-33.35h-51.41v-49.38c0-14.18,8.31-29.33,31.65-29.33Z"/>
    <rect class="cls-2" x="372.11" y="206.18" width="490.05" height="67.07"/>
    <g>
      <path class="cls-3" d="M454.94,252.9c-1.7,0-3.24-.34-4.62-1.03-1.38-.69-2.47-1.69-3.27-3.01-.8-1.32-1.21-2.91-1.21-4.78v-.42c0-1.87.41-3.48,1.22-4.85.82-1.37,1.91-2.42,3.29-3.15,1.38-.74,2.9-1.1,4.58-1.1,2.43,0,4.4.63,5.91,1.89,1.52,1.26,2.46,2.92,2.83,4.97l-4.34,1.12c-.14-1.03-.58-1.91-1.33-2.66-.75-.75-1.8-1.12-3.15-1.12-1.26,0-2.34.44-3.25,1.33-.91.89-1.36,2.11-1.36,3.67v.21c0,1.56.46,2.74,1.36,3.53.91.79,2,1.19,3.25,1.19,1.35,0,2.39-.34,3.1-1.01.71-.68,1.17-1.59,1.38-2.73l4.34,1.08c-.37,2.05-1.31,3.71-2.8,4.97-1.49,1.26-3.48,1.89-5.95,1.89Z"/>
      <path class="cls-3" d="M476.15,252.9c-1.59,0-3.07-.35-4.44-1.05-1.38-.7-2.48-1.71-3.32-3.04s-1.26-2.95-1.26-4.86v-.42c0-1.89.42-3.5,1.26-4.85s1.95-2.36,3.32-3.06c1.38-.7,2.86-1.05,4.44-1.05s3.07.35,4.44,1.05,2.48,1.72,3.32,3.06,1.26,2.96,1.26,4.85v.42c0,1.91-.42,3.53-1.26,4.86s-1.95,2.34-3.32,3.04c-1.38.7-2.86,1.05-4.44,1.05ZM476.15,248.7c1.28,0,2.37-.41,3.27-1.24.9-.83,1.35-1.95,1.35-3.38v-.7c0-1.45-.45-2.58-1.35-3.4-.9-.82-1.99-1.22-3.27-1.22s-2.37.41-3.27,1.22c-.9.82-1.35,1.95-1.35,3.4v.7c0,1.42.45,2.55,1.35,3.38.9.83,1.99,1.24,3.27,1.24Z"/>
      <path class="cls-3" d="M495.99,252.9c-1.42,0-2.71-.34-3.85-1.03-1.14-.69-2.05-1.69-2.73-3.01-.68-1.32-1.01-2.92-1.01-4.81v-.63c0-1.87.35-3.46,1.07-4.78.71-1.32,1.66-2.33,2.83-3.03,1.18-.7,2.47-1.05,3.87-1.05s2.51.26,3.34.79c.83.53,1.46,1.27,1.91,2.22h.63v-9.66h4.41v24.5h-4.41v-2.52h-.63c-.35.77-.93,1.46-1.73,2.08-.8.62-2.04.93-3.69.93ZM497.42,248.7c1.38,0,2.49-.44,3.34-1.31.85-.88,1.28-2.02,1.28-3.45v-.42c0-1.42-.43-2.57-1.28-3.45-.85-.88-1.97-1.31-3.34-1.31s-2.46.43-3.32,1.29c-.86.86-1.29,2.02-1.29,3.46v.42c0,1.45.43,2.6,1.29,3.46.86.86,1.97,1.29,3.32,1.29Z"/>
      <path class="cls-3" d="M519.16,252.9c-1.73,0-3.25-.37-4.58-1.1-1.33-.74-2.37-1.79-3.11-3.17-.75-1.38-1.12-3.03-1.12-4.97v-.21c0-1.77.4-3.32,1.19-4.65.79-1.33,1.85-2.37,3.17-3.11,1.32-.75,2.78-1.12,4.39-1.12,1.49,0,2.78.26,3.85.77,1.07.51,1.95,1.18,2.64,2,.69.82,1.2,1.71,1.54,2.68.34.97.51,1.91.51,2.82v2.34h-12.74c.05,1.03.48,1.87,1.29,2.54.82.67,1.78,1,2.9,1s1.94-.2,2.54-.59c.6-.4,1.01-.85,1.24-1.36l3.78,2.1c-.26.58-.68,1.19-1.28,1.82s-1.39,1.16-2.4,1.59c-1,.43-2.27.65-3.81.65ZM514.96,241.39h8.19c-.14-.82-.58-1.49-1.31-2.03-.73-.54-1.66-.8-2.78-.8s-2,.29-2.71.86c-.71.57-1.17,1.23-1.38,1.98Z"/>
      <path class="cls-3" d="M552.79,252.41l-1.15-17.36h4.06l.77,13.16v2.1h.84v-2.1l.87-13.16h7.28l.88,13.16v2.1h.84v-2.1l.77-13.16h4.06l-1.15,17.36h-7.63l-.98-13.16v-2.1h-.84v2.1l-.98,13.16h-7.63Z"/>
      <path class="cls-3" d="M575.57,252.41v-4.2h5.88v-8.96h-5.46v-4.2h9.87v13.16h5.04v4.2h-15.33ZM583.62,233.23c-.91,0-1.69-.32-2.34-.96-.65-.64-.98-1.43-.98-2.36s.33-1.72.98-2.36c.65-.64,1.43-.96,2.34-.96s1.69.32,2.34.96.98,1.43.98,2.36-.33,1.72-.98,2.36-1.43.96-2.34.96Z"/>
      <path class="cls-3" d="M604.02,252.41c-.79,0-1.44-.26-1.94-.77-.5-.51-.75-1.17-.75-1.96v-10.43h-5.14v-4.2h5.14v-7.14h4.41v7.14h6.26v4.2h-6.26v7.91c0,.7.31,1.05.94,1.05h4.69v4.2h-7.35Z"/>
      <path class="cls-3" d="M618.16,252.41v-24.5h4.41v9.94h.63c.44-1.05,1.1-1.86,1.96-2.43.86-.57,1.92-.86,3.18-.86,1.73,0,3.15.56,4.29,1.68,1.13,1.12,1.7,2.87,1.7,5.25v10.92h-4.41v-9.87c0-1.24-.3-2.21-.89-2.92-.59-.71-1.45-1.07-2.57-1.07-1.28,0-2.25.44-2.9,1.31-.65.88-.98,2.05-.98,3.52v9.03h-4.41Z"/>
      <path class="cls-3" d="M668.27,252.41c-.79,0-1.44-.26-1.94-.77-.5-.51-.75-1.17-.75-1.96v-10.43h-5.14v-4.2h5.14v-7.14h4.41v7.14h6.26v4.2h-6.26v7.91c0,.7.31,1.05.94,1.05h4.69v4.2h-7.35Z"/>
      <path class="cls-3" d="M690.32,252.9c-1.59,0-3.07-.35-4.44-1.05-1.38-.7-2.48-1.71-3.32-3.04s-1.26-2.95-1.26-4.86v-.42c0-1.89.42-3.5,1.26-4.85s1.95-2.36,3.32-3.06c1.38-.7,2.86-1.05,4.44-1.05s3.07.35,4.44,1.05,2.48,1.72,3.32,3.06,1.26,2.96,1.26,4.85v.42c0,1.91-.42,3.53-1.26,4.86s-1.95,2.34-3.32,3.04c-1.38.7-2.86,1.05-4.44,1.05ZM690.32,248.7c1.28,0,2.37-.41,3.27-1.24.9-.83,1.35-1.95,1.35-3.38v-.7c0-1.45-.45-2.58-1.35-3.4-.9-.82-1.99-1.22-3.27-1.22s-2.37.41-3.27,1.22c-.9.82-1.35,1.95-1.35,3.4v.7c0,1.42.45,2.55,1.35,3.38.9.83,1.99,1.24,3.27,1.24Z"/>
      <path class="cls-3" d="M702.5,252.41v-4.2h3.57v-8.96h-3.15v-4.2h7.35v2.52h.63c.33-.96.89-1.7,1.68-2.22.79-.52,1.73-.79,2.8-.79,1.73,0,3.11.54,4.16,1.63s1.57,2.74,1.57,4.95v.77l-4.55.42v-.49c0-.96-.25-1.72-.73-2.29-.49-.57-1.23-.86-2.21-.86s-1.75.34-2.31,1.01-.84,1.64-.84,2.9v5.6h3.99v4.2h-11.97Z"/>
      <path class="cls-3" d="M737.63,259.41v-9.52h-.63c-.35.77-.93,1.46-1.73,2.08-.8.62-2.04.93-3.69.93-1.42,0-2.71-.34-3.85-1.03-1.14-.69-2.05-1.69-2.73-3.01-.68-1.32-1.01-2.92-1.01-4.81v-.63c0-1.87.35-3.46,1.07-4.78.71-1.32,1.66-2.33,2.83-3.03,1.18-.7,2.47-1.05,3.87-1.05s2.51.26,3.34.79c.83.53,1.46,1.27,1.91,2.22h.63v-2.52h4.41v24.36h-4.41ZM733.01,248.7c1.38,0,2.49-.44,3.34-1.31.85-.88,1.28-2.02,1.28-3.45v-.42c0-1.42-.43-2.57-1.28-3.45-.85-.88-1.97-1.31-3.34-1.31s-2.46.43-3.32,1.29c-.86.86-1.29,2.02-1.29,3.46v.42c0,1.45.43,2.6,1.29,3.46.86.86,1.97,1.29,3.32,1.29Z"/>
      <path class="cls-3" d="M752.75,252.9c-1.14,0-2.18-.25-3.11-.75-.93-.5-1.67-1.27-2.22-2.31-.55-1.04-.82-2.35-.82-3.94v-10.85h4.41v9.94c0,1.21.3,2.17.89,2.87.6.7,1.46,1.05,2.61,1.05,1.33,0,2.3-.42,2.92-1.28.62-.85.93-2.01.93-3.48v-9.1h4.41v17.36h-4.41v-2.52h-.63c-.77,2.01-2.43,3.01-4.97,3.01Z"/>
      <path class="cls-3" d="M776.16,252.9c-1.73,0-3.25-.37-4.58-1.1-1.33-.74-2.37-1.79-3.11-3.17-.75-1.38-1.12-3.03-1.12-4.97v-.21c0-1.77.4-3.32,1.19-4.65.79-1.33,1.85-2.37,3.17-3.11,1.32-.75,2.78-1.12,4.39-1.12,1.49,0,2.78.26,3.85.77,1.07.51,1.95,1.18,2.64,2,.69.82,1.2,1.71,1.54,2.68.34.97.51,1.91.51,2.82v2.34h-12.74c.05,1.03.48,1.87,1.29,2.54.82.67,1.78,1,2.9,1s1.94-.2,2.54-.59c.6-.4,1.01-.85,1.24-1.36l3.78,2.1c-.26.58-.68,1.19-1.28,1.82s-1.39,1.16-2.4,1.59c-1,.43-2.27.65-3.81.65ZM771.96,241.39h8.19c-.14-.82-.58-1.49-1.31-2.03-.73-.54-1.66-.8-2.78-.8s-2,.29-2.71.86c-.71.57-1.17,1.23-1.38,1.98Z"/>
    </g>
  </g>
</svg>