<?xml version="1.0" encoding="UTF-8"?>
<svg id="Ebene_2" data-name="Ebene 2" xmlns="http://www.w3.org/2000/svg" viewBox="0 0 862.17 273.25">
  <defs>
    <style>
      .cls-1 {
        fill: #f5f0eb;
      }
    </style>
  </defs>
  <g id="design">
    <g>
      <path class="cls-1" d="M498.77,172.71h-51.41v-49.38c0-14.18,8.31-29.33,31.65-29.33h32.87v-36.44h-26.44c-15.87,0-28.69,4.77-38.07,14.01v-14.01h-75.25v33.67h38.79v-.32h.02v81.8h-38.81v33.35h126.65v-33.35Z"/>
      <path class="cls-1" d="M372.11,57.57h0c-23.14,0-43.84,10.64-57.48,27.27-13.64-16.64-34.34-27.27-57.48-27.27-40.97,0-74.3,33.33-74.3,74.3h0c0,22.41-18.23,40.65-40.65,40.65v.03h-60.9v-81.32s60.9,0,60.9,0v-33.67s-60.9,0-60.9,0V9.29s-35.96,0-35.96,0v43.68c0,2.54-2.06,4.59-4.6,4.59H0v33.67s44.57,0,44.57,0v76.37c0,23.8,14.39,38.58,37.55,38.58h60.09c23.14,0,43.84-10.64,57.48-27.27,13.64,16.64,34.34,27.27,57.48,27.27,40.97,0,74.3-33.33,74.3-74.3,0-22.41,18.23-40.65,40.65-40.65h0v-33.66ZM257.16,172.52c-22.41,0-40.65-18.23-40.65-40.65s18.23-40.65,40.65-40.65,40.65,18.23,40.65,40.65-18.23,40.65-40.65,40.65Z"/>
      <polygon class="cls-1" points="754.1 153.58 767.93 141 816.74 206.07 862.17 206.07 795.36 118.3 859.7 57.57 811.44 57.57 764.88 100.35 754.1 110.53 754.1 0 717.67 0 717.67 206.07 754.1 206.07 754.1 153.58"/>
      <path class="cls-1" d="M668.9,173.54l2.61-6.01-27.79-19.02-3.95,8.5c-5.79,12.47-15.21,18.54-28.79,18.54-9.13,0-30.36-3.16-30.36-32.42v-22.62c0-20.3,11.16-32.42,29.85-32.42,12.82,0,21.29,5.5,25.17,16.33l3.1,8.63,30.92-16.42-2.76-6.66c-9.48-22.88-29.52-35.49-56.43-35.49-41.2,0-67.82,30.35-67.82,77.34,0,38.38,17.84,65.65,46.92,74.36h-217.45v67.07h490.05v-67.07h-230.18c16.84-5.04,29.82-16.34,36.91-32.64ZM860.17,208.18v63.07h-486.05v-63.07h224.27c3.95.63,8.07.98,12.35.98s8.49-.33,12.49-.98h236.95Z"/>
      <path class="cls-1" d="M451.62,240.09c.91-.89,2-1.33,3.25-1.33,1.35,0,2.4.37,3.15,1.12.75.75,1.19,1.63,1.33,2.66l4.34-1.12c-.37-2.05-1.32-3.71-2.83-4.97-1.52-1.26-3.49-1.89-5.92-1.89-1.68,0-3.21.37-4.58,1.1-1.38.73-2.47,1.78-3.29,3.15s-1.22,2.98-1.22,4.85v.42c0,1.87.4,3.46,1.21,4.78.81,1.32,1.9,2.32,3.27,3.01,1.38.69,2.92,1.03,4.62,1.03,2.47,0,4.46-.63,5.95-1.89s2.43-2.92,2.8-4.97l-4.34-1.08c-.21,1.14-.67,2.05-1.38,2.73-.71.68-1.74,1.01-3.1,1.01-1.26,0-2.34-.4-3.25-1.19-.91-.79-1.37-1.97-1.37-3.53v-.21c0-1.56.46-2.79,1.37-3.67Z"/>
      <path class="cls-1" d="M480.59,235.61c-1.38-.7-2.86-1.05-4.44-1.05s-3.07.35-4.44,1.05-2.48,1.72-3.32,3.06-1.26,2.96-1.26,4.85v.42c0,1.91.42,3.53,1.26,4.86s1.95,2.34,3.32,3.04c1.38.7,2.86,1.05,4.44,1.05s3.07-.35,4.44-1.05c1.38-.7,2.49-1.71,3.33-3.04s1.26-2.95,1.26-4.86v-.42c0-1.89-.42-3.5-1.26-4.85s-1.95-2.36-3.33-3.06ZM480.77,244.08c0,1.42-.45,2.55-1.35,3.38-.9.83-1.99,1.24-3.27,1.24s-2.37-.41-3.27-1.24c-.9-.83-1.35-1.95-1.35-3.38v-.7c0-1.45.45-2.58,1.35-3.4.9-.82,1.99-1.22,3.27-1.22s2.37.41,3.27,1.22c.9.82,1.35,1.95,1.35,3.4v.7Z"/>
      <path class="cls-1" d="M502.05,237.57h-.63c-.44-.96-1.08-1.7-1.91-2.22-.83-.52-1.94-.79-3.34-.79s-2.69.35-3.87,1.05c-1.18.7-2.12,1.71-2.83,3.03-.71,1.32-1.07,2.91-1.07,4.78v.63c0,1.89.34,3.49,1.01,4.81s1.59,2.32,2.73,3.01c1.14.69,2.43,1.03,3.85,1.03,1.66,0,2.89-.31,3.69-.93s1.38-1.31,1.73-2.08h.63v2.52h4.41v-24.5h-4.41v9.66ZM502.05,243.94c0,1.42-.43,2.57-1.28,3.45-.85.88-1.97,1.31-3.34,1.31s-2.46-.43-3.32-1.29-1.29-2.02-1.29-3.46v-.42c0-1.45.43-2.6,1.29-3.46.86-.86,1.97-1.29,3.32-1.29s2.49.44,3.34,1.31c.85.88,1.28,2.02,1.28,3.45v.42Z"/>
      <path class="cls-1" d="M525.58,237.33c-.69-.82-1.57-1.48-2.64-2-1.07-.51-2.36-.77-3.85-.77-1.61,0-3.07.37-4.39,1.12-1.32.75-2.37,1.78-3.17,3.11-.79,1.33-1.19,2.88-1.19,4.65v.21c0,1.94.37,3.59,1.12,4.97s1.79,2.43,3.12,3.17c1.33.73,2.86,1.1,4.58,1.1,1.54,0,2.81-.22,3.81-.65s1.8-.96,2.4-1.59,1.02-1.24,1.28-1.82l-3.78-2.1c-.23.51-.65.97-1.24,1.36-.59.4-1.44.59-2.54.59s-2.09-.33-2.9-1c-.82-.67-1.25-1.51-1.29-2.54h12.74v-2.34c0-.91-.17-1.85-.51-2.82-.34-.97-.85-1.86-1.54-2.68ZM514.96,241.39c.21-.75.67-1.41,1.38-1.98.71-.57,1.62-.86,2.71-.86s2.05.27,2.78.8c.74.54,1.17,1.21,1.31,2.03h-8.19Z"/>
      <polygon class="cls-1" points="567.17 248.21 567.17 250.31 566.33 250.31 566.33 248.21 565.46 235.05 558.18 235.05 557.3 248.21 557.3 250.31 556.46 250.31 556.46 248.21 555.69 235.05 551.63 235.05 552.79 252.41 560.42 252.41 561.4 239.25 561.4 237.15 562.24 237.15 562.24 239.25 563.22 252.41 570.85 252.41 572 235.05 567.94 235.05 567.17 248.21"/>
      <path class="cls-1" d="M583.62,233.23c.91,0,1.69-.32,2.34-.96s.98-1.43.98-2.36-.33-1.72-.98-2.36-1.43-.96-2.34-.96-1.69.32-2.34.96c-.65.64-.98,1.43-.98,2.36s.33,1.72.98,2.36c.65.64,1.43.96,2.34.96Z"/>
      <polygon class="cls-1" points="585.86 235.05 575.99 235.05 575.99 239.25 581.45 239.25 581.45 248.21 575.57 248.21 575.57 252.41 590.9 252.41 590.9 248.21 585.86 248.21 585.86 235.05"/>
      <path class="cls-1" d="M605.74,227.91h-4.41v7.14h-5.14v4.2h5.14v10.43c0,.79.25,1.45.75,1.96.5.51,1.15.77,1.94.77h7.35v-4.2h-4.69c-.63,0-.95-.35-.95-1.05v-7.91h6.26v-4.2h-6.26v-7.14Z"/>
      <path class="cls-1" d="M622.57,243.38c0-1.47.33-2.64.98-3.52s1.62-1.31,2.91-1.31c1.12,0,1.98.36,2.57,1.07.6.71.89,1.69.89,2.92v9.87h4.41v-10.92c0-2.38-.57-4.13-1.7-5.25s-2.56-1.68-4.29-1.68c-1.26,0-2.32.29-3.18.86-.86.57-1.52,1.38-1.96,2.43h-.63v-9.94h-4.41v24.5h4.41v-9.03Z"/>
      <path class="cls-1" d="M665.58,249.68c0,.79.25,1.45.75,1.96.5.51,1.15.77,1.94.77h7.35v-4.2h-4.69c-.63,0-.94-.35-.94-1.05v-7.91h6.26v-4.2h-6.26v-7.14h-4.41v7.14h-5.14v4.2h5.14v10.43Z"/>
      <path class="cls-1" d="M685.88,251.85c1.38.7,2.86,1.05,4.44,1.05s3.07-.35,4.44-1.05c1.38-.7,2.48-1.71,3.32-3.04s1.26-2.95,1.26-4.86v-.42c0-1.89-.42-3.5-1.26-4.85s-1.95-2.36-3.32-3.06c-1.38-.7-2.86-1.05-4.44-1.05s-3.07.35-4.44,1.05c-1.38.7-2.49,1.72-3.33,3.06s-1.26,2.96-1.26,4.85v.42c0,1.91.42,3.53,1.26,4.86s1.95,2.34,3.33,3.04ZM685.7,243.38c0-1.45.45-2.58,1.35-3.4.9-.82,1.99-1.22,3.27-1.22s2.37.41,3.27,1.22c.9.82,1.35,1.95,1.35,3.4v.7c0,1.42-.45,2.55-1.35,3.38-.9.83-1.99,1.24-3.27,1.24s-2.37-.41-3.27-1.24c-.9-.83-1.35-1.95-1.35-3.38v-.7Z"/>
      <path class="cls-1" d="M714.47,248.21h-3.99v-5.6c0-1.26.28-2.23.84-2.9.56-.68,1.33-1.01,2.31-1.01s1.71.29,2.21.86c.49.57.74,1.33.74,2.29v.49l4.55-.42v-.77c0-2.22-.52-3.87-1.57-4.95s-2.44-1.63-4.17-1.63c-1.07,0-2.01.26-2.8.79-.79.53-1.35,1.27-1.68,2.22h-.63v-2.52h-7.35v4.2h3.15v8.96h-3.57v4.2h11.97v-4.2Z"/>
      <path class="cls-1" d="M727.73,251.87c1.14.69,2.43,1.03,3.85,1.03,1.66,0,2.89-.31,3.69-.93.81-.62,1.38-1.31,1.73-2.08h.63v9.52h4.41v-24.36h-4.41v2.52h-.63c-.44-.96-1.08-1.7-1.91-2.22-.83-.52-1.94-.79-3.34-.79s-2.69.35-3.87,1.05c-1.18.7-2.12,1.71-2.83,3.03s-1.07,2.91-1.07,4.78v.63c0,1.89.34,3.49,1.01,4.81.68,1.32,1.59,2.32,2.73,3.01ZM728.4,243.52c0-1.45.43-2.6,1.29-3.46s1.97-1.29,3.32-1.29,2.49.44,3.34,1.31,1.28,2.02,1.28,3.45v.42c0,1.42-.43,2.57-1.28,3.45s-1.97,1.31-3.34,1.31-2.46-.43-3.32-1.29c-.86-.86-1.29-2.02-1.29-3.46v-.42Z"/>
      <path class="cls-1" d="M749.64,252.15c.93.5,1.97.75,3.11.75,2.54,0,4.2-1,4.97-3.01h.63v2.52h4.41v-17.36h-4.41v9.1c0,1.47-.31,2.63-.93,3.48-.62.85-1.59,1.28-2.92,1.28-1.14,0-2.01-.35-2.61-1.05-.59-.7-.89-1.66-.89-2.87v-9.94h-4.41v10.85c0,1.59.27,2.9.82,3.94.55,1.04,1.29,1.81,2.22,2.31Z"/>
      <path class="cls-1" d="M771.58,251.8c1.33.73,2.86,1.1,4.58,1.1,1.54,0,2.81-.22,3.81-.65s1.8-.96,2.4-1.59,1.02-1.24,1.28-1.82l-3.78-2.1c-.23.51-.65.97-1.24,1.36-.59.4-1.44.59-2.54.59s-2.09-.33-2.9-1c-.82-.67-1.25-1.51-1.29-2.54h12.74v-2.34c0-.91-.17-1.85-.51-2.82-.34-.97-.85-1.86-1.54-2.68-.69-.82-1.57-1.48-2.64-2-1.07-.51-2.36-.77-3.85-.77-1.61,0-3.07.37-4.39,1.12-1.32.75-2.37,1.78-3.17,3.11-.79,1.33-1.19,2.88-1.19,4.65v.21c0,1.94.37,3.59,1.12,4.97s1.79,2.43,3.12,3.17ZM773.35,239.41c.71-.57,1.62-.86,2.71-.86s2.05.27,2.78.8c.74.54,1.17,1.21,1.31,2.03h-8.19c.21-.75.67-1.41,1.38-1.98Z"/>
    </g>
  </g>
</svg>