<?xml version="1.0" encoding="UTF-8"?>
<svg id="Ebene_2" data-name="Ebene 2" xmlns="http://www.w3.org/2000/svg" viewBox="0 0 220.48 142.59">
  <defs>
    <style>
      .cls-1 {
        fill: #f2fb29;
      }
    </style>
  </defs>
  <g id="design">
    <path class="cls-1" d="M165.45,26.08C152.38,10.16,132.55,0,110.35,0,70.99,0,39.08,31.91,39.08,71.27c0,.02,0,.04,0,.05h-.1C38.99,92.82,21.5,110.31,0,110.31v32.28c22.22,0,42.1-10.22,55.17-26.21,13.07,15.97,32.93,26.16,55.17,26.16,39.36,0,71.27-31.91,71.27-71.27,0-.78-.02-1.56-.04-2.33,1.24-20.39,18.21-36.6,38.91-36.6V.05c-22.13,0-41.94,10.14-55.02,26.02ZM110.35,110.13c-21.46,0-38.86-17.4-38.86-38.86s17.4-38.86,38.86-38.86,38.86,17.4,38.86,38.86-17.4,38.86-38.86,38.86Z"/>
  </g>
</svg>