<?xml version="1.0" encoding="UTF-8"?>
<svg id="Ebene_2" data-name="Ebene 2" xmlns="http://www.w3.org/2000/svg" viewBox="0 0 227.15 227.3">
  <defs>
    <style>
      .cls-1 {
        fill: #f2fb29;
      }
    </style>
  </defs>
  <g id="info">
    <path class="cls-1" d="M27.02,177.32l34.92-52.79,34.52,36.55,22.7-29.93,20.23,14.79,31.25-38.73,45.88,58-.05-115.63c0-12.22-9.79-21.35-21.46-22.43h-77.59c-3.33,0-5.67-2.2-5.82-4.86-.19-3.4,2.12-5.94,5.78-5.92l78.62.3c16.06.06,31.04,14.7,31.05,31.1l.09,147.54c0,16.56-14.43,31.99-31.24,31.99H47.53c-16.35,0-31.06-14.9-31.1-31.1l-.25-103.56c0-3.13,3.37-5.06,5.78-4.78,2.66.31,4.91,2.54,4.95,5.63l.11,83.83Z"/>
    <path class="cls-1" d="M53.59,107.06c-3.93-13.9-8.86-26.21-19.24-35.69C25.05,61.97,13.54,57.67,0,53.62,28.53,47.85,47.43,28.8,53.57,0c6.23,28.54,24.76,47.76,53.46,53.53-29.55,8.41-45.34,22.56-53.44,53.53Z"/>
    <path class="cls-1" d="M95.53,120.56c-2.38-11.22-9.84-17.76-20.03-20.56,11.12-2.73,17.98-10.27,20.04-20.66,2.55,11,9.39,18.23,20.6,20.64-10.72,2.61-17.78,9.33-20.61,20.57Z"/>
    <path class="cls-1" d="M86.88,31.81c-1.57-6.48-5.7-11.21-12.9-12.92,6.66-1.79,11.34-6.12,12.89-12.91,2.13,6.86,5.98,10.78,12.88,12.89-6.45,1.71-10.82,5.73-12.87,12.94Z"/>
    <path class="cls-1" d="M118.55,81.33c-1.71-3.03-3.99-6.07-8.06-7.35,3.63-1.45,6.25-3.99,8.12-8.25.89,3.92,3.54,6.5,7.71,8.23-3.41,1.25-5.83,2.98-7.77,7.37Z"/>
  </g>
</svg>